<?xml version="1.0" encoding="UTF-8"?>
<svg width="38px" height="24px" viewBox="0 0 38 24" version="1.1" xmlns="http://www.w3.org/2000/svg" xmlns:xlink="http://www.w3.org/1999/xlink">
    <title>赞-已点@1x</title>
    <defs>
        <linearGradient x1="68.1941331%" y1="-8.37360628e-13%" x2="50%" y2="100%" id="linearGradient-1">
            <stop stop-color="#0142FF" offset="0%"></stop>
            <stop stop-color="#297FFF" offset="100%"></stop>
        </linearGradient>
    </defs>
    <g id="基础" stroke="none" stroke-width="1" fill="none" fill-rule="evenodd">
        <g id="1.10.2已点赞" transform="translate(-31.000000, -368.000000)">
            <g id="赞-已点" transform="translate(31.000000, 368.000000)">
                <rect id="矩形" fill-opacity="0.2" fill="#4877FF" x="0" y="0" width="38" height="24" rx="12"></rect>
                <g id="icon/点赞-未点赞" transform="translate(8.000000, 1.000000)" fill="url(#linearGradient-1)" fill-rule="nonzero">
                    <g id="编组" transform="translate(3.666667, 3.666667)">
                        <path d="M1.21728665,6.31685287 C1.21858976,6.15440746 1.15510605,5.99812459 1.04085273,5.88251155 C0.92659941,5.76689851 0.770973911,5.70146456 0.60833836,5.70065752 C0.272345782,5.70065752 1.03060389e-06,5.97880125 1.03060389e-06,6.31685287 L1.03060389e-06,14.04986 C-0.000609945237,14.3915795 0.270509752,14.6666667 0.611398396,14.6666667 C0.949227004,14.6666667 1.22340674,14.3885229 1.22279575,14.0504713 L1.21667466,6.31746418 L1.21728665,6.31685287 Z M10.6079426,4.89128981 L11.9084604,4.89556894 C12.321566,4.89556894 12.6618426,4.89434633 12.6618426,4.89434633 C14.0168291,4.89251241 14.891389,5.96535253 14.6159853,7.28271462 L13.3246477,13.4678977 C13.1851098,14.129941 12.5247528,14.6666667 11.8454235,14.6666667 L3.07595598,14.6666667 C2.73600561,14.6656596 2.46067185,14.3906423 2.45966359,14.0510826 L2.45966359,6.32235461 C2.45966359,5.98246909 2.73384332,5.70677057 3.07289595,5.70677057 L3.26873861,5.70677057 C5.57662206,5.70677057 6.89182799,3.73775745 6.93895263,2.02977151 C6.93038452,0.632328479 7.86614527,0.01124269 8.77497765,0.000118290297 C9.68442204,-0.0107642868 11.0186002,0.72769205 11.0186002,2.85747836 C11.0186002,3.13867862 10.9941199,3.41070932 10.9512793,3.67051389 L10.6079426,4.89067851 L10.6079426,4.89128981 Z" id="形状"></path>
                    </g>
                </g>
            </g>
        </g>
    </g>
</svg>