<?xml version="1.0" encoding="UTF-8"?>
<svg width="18px" height="18px" viewBox="0 0 18 18" version="1.1" xmlns="http://www.w3.org/2000/svg" xmlns:xlink="http://www.w3.org/1999/xlink">
    <title>话题@1x</title>
    <defs>
        <linearGradient x1="-1.69309011e-13%" y1="50%" x2="100%" y2="50%" id="linearGradient-1">
            <stop stop-color="#4877FF" offset="0%"></stop>
            <stop stop-color="#96AEFF" offset="100%"></stop>
        </linearGradient>
    </defs>
    <g id="控件" stroke="none" stroke-width="1" fill="none" fill-rule="evenodd">
        <g id="关联问" transform="translate(-13.000000, -9.000000)">
            <g id="编组" transform="translate(12.000000, 8.000000)">
                <rect id="矩形" fill="#000000" fill-rule="nonzero" opacity="0" x="0" y="0" width="20" height="20"></rect>
                <path d="M9.29728516,10.625 L10.5360352,10.625 L10.7027148,9.375 L9.46396484,9.375 L9.29728516,10.625 L9.29728516,10.625 Z M9.9999915,1.66666016 C14.6022767,1.66666016 18.3333398,5.39771484 18.3333398,10 C18.3352953,11.372383 17.9968665,12.7238301 17.3483509,13.9333203 C17.2783509,14.0639648 17.137511,14.30875 16.922511,14.67375 L16.922511,14.67375 L17.4779212,16.710625 C17.6052259,17.1770898 17.1772962,17.6052148 16.710636,17.478125 L16.710636,17.478125 L14.6714759,16.921875 C14.5405905,16.997925 14.4100229,17.0745207 14.2797767,17.1516602 C12.9870294,17.9270547 11.5074487,18.3355777 9.9999915,18.333349 C5.39770634,18.333349 1.66665166,14.6022852 1.66665166,10 C1.66665166,5.39771484 5.39770634,1.66666016 9.9999915,1.66666016 Z M11.2868781,6.378536 C11.1552114,6.47926222 11.0689557,6.62817168 11.0470898,6.7925 L10.869375,8.125 L9.630625,8.125 L9.78625,6.9575 C9.83181349,6.61531537 9.59135455,6.30098341 9.24916992,6.25541992 C8.90698529,6.20985643 8.59265334,6.45031537 8.54708984,6.7925 L8.369375,8.125 L6.875,8.125 C6.52982203,8.125 6.25,8.40482203 6.25,8.75 C6.25,9.09517797 6.52982203,9.375 6.875,9.375 L8.20271484,9.375 L8.03603516,10.625 L6.875,10.625 C6.52982203,10.625 6.25,10.904822 6.25,11.25 C6.25,11.595178 6.52982203,11.875 6.875,11.875 L7.869375,11.875 L7.71375,13.0425 C7.66818651,13.3846846 7.90864545,13.6990166 8.25083008,13.7445801 C8.5930147,13.7901436 8.90734666,13.5496846 8.95291016,13.2075 L9.130625,11.875 L10.369375,11.875 L10.21375,13.0425 C10.1681865,13.3846846 10.4086455,13.6990166 10.7508301,13.7445801 C11.0930147,13.7901436 11.4073467,13.5496846 11.4529102,13.2075 L11.630625,11.875 L13.125,11.875 C13.470178,11.875 13.75,11.595178 13.75,11.25 C13.75,10.904822 13.470178,10.625 13.125,10.625 L11.7972852,10.625 L11.9639648,9.375 L13.125,9.375 C13.470178,9.375 13.75,9.09517797 13.75,8.75 C13.75,8.40482203 13.470178,8.125 13.125,8.125 L12.130625,8.125 L12.28625,6.9575 C12.3081463,6.7931719 12.2638586,6.62687661 12.1631318,6.49520547 C12.0624051,6.36353432 11.9134923,6.27727582 11.7491602,6.25541016 C11.5848351,6.23351944 11.4185449,6.27780978 11.2868781,6.378536 Z" id="形状" fill="url(#linearGradient-1)" opacity="0.7"></path>
            </g>
        </g>
    </g>
</svg>