<?xml version="1.0" encoding="UTF-8"?>
<svg width="206px" height="11px" viewBox="0 0 206 11" version="1.1" xmlns="http://www.w3.org/2000/svg" xmlns:xlink="http://www.w3.org/1999/xlink">
    <title>路径 7</title>
    <g id="卡片设计" stroke="none" stroke-width="1" fill="none" fill-rule="evenodd">
        <g id="2.2.2.1挑选产品-利益演示-利益演示卡片-领取详情" transform="translate(-50.000000, -551.000000)" fill="#FF882C" fill-rule="nonzero">
            <g id="编组-15" transform="translate(16.000000, 97.000000)">
                <g id="编组-10" transform="translate(16.000000, 126.000000)">
                    <g id="编组-9" transform="translate(11.879784, 51.000000)">
                        <g id="编组-5" transform="translate(0.000000, 129.000000)">
                            <g id="编组-49备份" transform="translate(0.000000, 48.000000)">
                                <path d="M103.588361,100.923359 C104.421757,100.264761 105.573193,100.208555 106.462115,100.763939 L106.625569,100.875243 L109.438074,102.956588 C109.653278,103.115845 109.906353,103.214018 110.170651,103.242319 L110.330364,103.250844 L208.779982,103.250844 C210.105466,103.250844 211.190021,104.28238 211.274665,105.586468 L211.279982,105.750844 L211.279982,110.913464 L210.279982,110.913464 L210.279982,105.750844 C210.279982,104.971148 209.685094,104.330395 208.924442,104.257711 L208.779982,104.250844 L110.330364,104.250844 C109.86185,104.250844 109.404167,104.119224 109.008728,103.872939 L108.843215,103.760418 L106.03071,101.679073 C105.528258,101.307242 104.853356,101.288719 104.334624,101.618298 L104.208384,101.707942 L101.672051,103.712302 C101.285846,104.017504 100.819447,104.200924 100.332009,104.24201 L100.121992,104.250844 L9.59869706,104.250844 C8.81900095,104.250844 8.17824838,104.845732 8.10556364,105.606384 L8.09869706,105.750844 L8.09869706,110.913464 L7.09869706,110.913464 L7.09869706,105.750844 C7.09869706,104.425361 8.130233,103.340805 9.43432138,103.256162 L9.59869706,103.250844 L100.121992,103.250844 C100.411309,103.250844 100.693379,103.167203 100.934837,103.011514 L101.052027,102.927719 L103.588361,100.923359 Z" id="路径-7"></path>
                            </g>
                        </g>
                    </g>
                </g>
            </g>
        </g>
    </g>
</svg>