<?xml version="1.0" encoding="UTF-8"?>
<svg width="12px" height="12px" viewBox="0 0 12 12" version="1.1" xmlns="http://www.w3.org/2000/svg" xmlns:xlink="http://www.w3.org/1999/xlink">
    <title>icon/编辑</title>
    <g id="icon/编辑" stroke="none" stroke-width="1" fill="none" fill-rule="evenodd">
        <path d="M8.18887508,0.332358316 C8.56618573,0.332358316 8.87205646,0.638229038 8.87205646,1.01553969 L8.87205646,6.129371 C8.87205646,6.35695469 8.79442722,6.5777308 8.65199163,6.75523131 L8.34486211,7.13797025 C8.27573149,7.22411951 8.14985227,7.23791584 8.06370301,7.16878522 C8.05233961,7.15966664 8.04200663,7.14933366 8.03288804,7.13797025 L7.72575853,6.75523131 C7.58332293,6.5777308 7.5056937,6.35695469 7.5056937,6.129371 L7.5056937,1.01553969 C7.5056937,0.638229038 7.81156442,0.332358316 8.18887508,0.332358316 Z" id="矩形" fill="#758DB1" transform="translate(8.188875, 3.832358) rotate(45.000000) translate(-8.188875, -3.832358) "></path>
        <path d="M6.32967878,1.07757337 C6.60582116,1.07757337 6.82967878,1.301431 6.82967878,1.57757337 C6.82967878,1.82303326 6.65280362,2.02718174 6.41955441,2.0695177 L6.32967878,2.07757337 L3.400798,2.07757337 C2.62110188,2.07757337 1.98034932,2.67246145 1.90766458,3.43311336 L1.900798,3.57757337 L1.900798,8.79903951 C1.900798,9.57873563 2.49568608,10.2194882 3.25633799,10.2921729 L3.400798,10.2990395 L8.57787857,10.2990395 C9.35757468,10.2990395 9.99832725,9.70415143 10.071012,8.94349952 L10.0778786,8.79903951 L10.0778786,5.42512338 C10.0778786,5.14898101 10.3017362,4.92512338 10.5778786,4.92512338 C10.8233385,4.92512338 11.0274869,5.10199854 11.0698229,5.33524775 L11.0778786,5.42512338 L11.0778786,8.79903951 C11.0778786,10.1245229 10.0463426,11.2090782 8.74225426,11.2937218 L8.57787857,11.2990395 L3.400798,11.2990395 C2.0753146,11.2990395 0.990759327,10.2675036 0.906115679,8.9634152 L0.900797999,8.79903951 L0.900797999,3.57757337 C0.900797999,2.25208997 1.93233394,1.1675347 3.23642231,1.08289105 L3.400798,1.07757337 L6.32967878,1.07757337 Z" id="路径-7" fill="#758DB1" fill-rule="nonzero"></path>
    </g>
</svg>