<?xml version="1.0" encoding="UTF-8"?>
<svg width="14px" height="31px" viewBox="0 0 14 31" version="1.1" xmlns="http://www.w3.org/2000/svg" xmlns:xlink="http://www.w3.org/1999/xlink">
    <title>麦穗2</title>
    <g id="业务" stroke="none" stroke-width="1" fill="none" fill-rule="evenodd">
        <g id="2.3.3保险省心配-查看规划详情H5-提示信息" transform="translate(-229.000000, -652.000000)" fill="#C2CBD9" fill-rule="nonzero">
            <g id="编组-58" transform="translate(0.000000, 414.000000)">
                <g id="编组-57" transform="translate(15.000000, 120.000000)">
                    <g id="编组-56" transform="translate(12.000000, 97.000000)">
                        <g id="编组-55" transform="translate(12.000000, 16.000000)">
                            <g id="麦穗2" transform="translate(190.000000, 5.000000)">
                                <path d="M12.732929,11.2102115 C12.7584381,11.2986532 12.7839473,11.3615653 12.7839473,11.4253892 C12.8477201,12.3362474 12.7074199,13.221576 12.4140648,14.069522 C12.2865192,14.4360536 12.1334644,14.7779673 11.9421459,15.119881 C11.7116526,15.5365599 11.3672794,15.852944 10.8826059,15.9541505 C10.8272457,15.9681648 10.7777847,15.999462 10.7413946,16.043504 C10.6648672,16.2459169 10.5500761,16.4483298 10.5500761,16.6507428 C10.5118124,17.7895434 10.4097759,18.9028145 10.14193,20.0151738 C10.1291754,20.0534682 10.1291754,20.0917625 10.1674391,20.1428216 C10.1929482,20.0789977 10.231212,20.0151738 10.2439665,19.9404087 C10.3970213,19.2191987 10.6266035,18.5226064 11.0866789,17.9162794 C11.6478798,17.1813929 12.3247829,16.5996836 13.2312681,16.2960642 C13.2567772,16.2832994 13.2822864,16.2832994 13.3077955,16.2705347 C13.3205501,16.2705347 13.3333046,16.2705347 13.3843229,16.2832995 C13.3843229,16.4100355 13.3970775,16.5495363 13.3588138,16.6753605 C13.0909679,17.7895434 12.6181379,18.7888433 11.8136892,19.6112597 C11.4438068,19.990556 10.9973969,20.2312633 10.4225304,20.1802042 C10.3715122,20.1802042 10.2822302,20.2057337 10.2567211,20.2440281 C10.14193,20.4336763 10.0016297,20.6233244 9.92510236,20.8385021 C9.5543089,21.9773027 9.10789908,23.0778091 8.52027797,24.1154033 C8.48201428,24.1792272 8.45650513,24.2539923 8.41824144,24.3178162 C8.44375056,24.330581 8.45650513,24.3433457 8.48201428,24.3561105 C8.54578712,24.2667571 8.62231451,24.1919919 8.66057823,24.1026385 C8.95484428,23.5336941 9.29830654,23.014897 9.79664565,22.5973063 C10.5118124,21.9900675 11.3290157,21.6609186 12.2865192,21.6736834 C12.5416105,21.6736834 12.5543651,21.6983012 12.4778377,21.9517732 C12.3375374,22.3821286 12.0952007,22.7614249 11.8136892,23.1161034 C11.4182976,23.6084592 10.9846424,24.0771089 10.3970213,24.3679636 C9.86041846,24.6342004 9.29921757,24.7481716 8.71159647,24.46917 C8.67333277,24.457317 8.62231451,24.4445522 8.59680539,24.457317 C8.43099602,24.5831413 8.21416841,24.671583 8.11213188,24.8366133 C7.5245108,25.7474715 6.86036232,26.5954175 6.08233375,27.3667749 C6.05344591,27.3934098 6.02748563,27.4230588 6.00489531,27.4552166 C5.99214074,27.4679814 6.00489531,27.4807462 5.99214077,27.5691878 C6.1078429,27.4807462 6.19712486,27.4305988 6.2608977,27.3540101 C6.69455295,26.8862721 7.19289206,26.4942111 7.81877685,26.3045629 C8.76261476,26.0255613 9.68185455,26.1267678 10.5883398,26.5069759 C10.6138489,26.5188289 10.6266035,26.5315936 10.6903763,26.5826528 C10.5628307,26.7340066 10.4607941,26.8990369 10.3204939,27.0248612 C9.43951782,27.7843655 8.44375059,28.2648683 7.2566649,28.2402505 C6.91277615,28.2298718 6.58323608,28.099949 6.32467051,27.8728072 C6.09508833,27.6703943 5.81448785,27.6576295 5.55848552,27.8728072 C4.8820539,28.463393 4.13617503,28.9692087 3.33736891,29.3790512 L2.80076607,29.6434645 C2.81352064,29.6699058 2.81352064,29.6826706 2.82627522,29.7072884 C2.91555718,29.6826706 3.00483913,29.6699058 3.06861198,29.6316115 C3.50317828,29.3909042 3.94958807,29.1884913 4.44792721,29.1255791 C5.46829251,28.9988431 6.36293423,29.3152273 7.19289206,29.8850835 C7.33319228,29.9853782 7.47349251,30.0993494 7.65205645,30.2388502 C7.46073796,30.3655863 7.32043774,30.4923223 7.14187379,30.5670874 C6.18437028,30.9855898 5.18860308,31.1369436 4.15366113,30.8588538 C3.65623305,30.719353 3.23533237,30.4667927 2.97933002,30.0109078 C2.89004806,29.8467892 2.52016562,29.7455827 2.31609256,29.8212596 C1.6391895,30.0874964 0.924022745,30.2643798 0.208856023,30.3774393 C0.145083183,30.3911158 0.0813103725,30.3911158 0.00478295814,30.3911158 C-0.0207261598,30.2014677 0.0558012243,30.0993495 0.234365141,30.0747317 C0.951819831,29.9582462 1.65423418,29.7628559 2.32884713,29.4921107 C2.67322042,29.3535216 2.81352064,29.1511087 2.76250238,28.7836654 C2.67322042,28.0496906 2.81352064,27.3540101 3.13238482,26.6838592 C3.47359152,25.9798819 4.02160754,25.3970691 4.70301854,25.0134967 C4.75403681,24.9879672 4.81780965,24.9633494 4.90709158,24.913202 C4.894337,25.051791 4.88158246,25.1529975 4.86882789,25.254204 C4.72852766,26.0510909 4.65200025,26.8479778 4.38415437,27.620247 C4.18008131,28.2019562 3.82204242,28.6450764 3.27268504,28.935931 C3.19725288,28.9784122 3.11539767,29.0082856 3.03034828,29.0243727 C2.85178437,29.0243727 2.82627522,29.1128144 2.82627522,29.2896977 C2.89004806,29.2650799 2.94106632,29.2523151 2.99208459,29.2267856 C4.0166265,28.749781 4.95668094,28.1089235 5.77531313,27.3293923 C5.99214077,27.1142146 5.95387705,26.8096835 5.86459509,26.581741 C5.46920353,25.5322938 5.53297637,24.4819348 5.89010424,23.4452524 C6.06957921,22.9136905 6.36293423,22.4331878 6.73281664,22.0019206 C6.77108033,21.964538 6.80934402,21.9390084 6.87311686,21.8760963 C6.91138055,22.1669509 6.94964425,22.432276 6.97515339,22.685748 C7.02708269,23.1917803 7.09085553,23.6978127 7.11636467,24.203845 C7.15462837,24.8995254 7.1036101,25.5952059 6.66995485,26.1778269 C6.54149815,26.3547103 6.3756888,26.5315936 6.18437028,26.6583297 C6.03040446,26.7723009 6.00489531,26.8735074 6.05682463,27.0759203 C6.24814312,26.8607426 6.42670704,26.6838592 6.59251641,26.4942111 C7.20564663,25.7976188 7.75409299,25.0645558 8.18865926,24.2539923 C8.31620491,24.0141968 8.23967753,23.7233422 8.0993773,23.5209293 C7.07810095,22.0019206 7.1036101,20.4209115 7.76684753,18.7888433 C7.7796021,18.7505489 7.80511122,18.7250193 7.8178658,18.6876368 C7.8178658,18.674872 7.84337491,18.674872 7.86888406,18.6621072 C8.25152104,19.6741719 8.76261473,20.6360892 8.86465126,21.7238307 C8.9284241,22.3821286 8.82638757,23.0021322 8.37997775,23.5336941 C8.31620491,23.609371 8.34171406,23.74796 8.32895948,23.8491665 C8.3544686,23.8619313 8.37997775,23.8619313 8.39273232,23.874696 L8.62231451,23.4571054 C9.13685614,22.4014442 9.53901558,21.2945438 9.82215477,20.1546746 C9.83490935,20.1045273 9.84766389,20.0416151 9.83490935,20.0033208 C9.7073637,19.7498488 9.63083628,19.4717589 9.35023583,19.2948756 C8.82638757,18.9401971 8.53303255,18.3967822 8.27794122,17.826926 C7.86888406,16.903303 7.8178658,15.9541505 7.95907708,14.9803802 C7.95907708,14.9548507 7.9709206,14.9293211 7.9845862,14.9047033 C8.01009531,14.9174681 8.03560446,14.9174681 8.03560446,14.9293211 C8.49476886,15.5620894 8.99219691,16.1693282 9.42676322,16.8276261 C9.84766389,17.4476297 10.0909117,18.1314571 9.97612063,18.8900497 C9.95061151,19.0414036 9.91234779,19.2064339 9.83490935,19.3322581 C9.7073637,19.5100533 9.79664565,19.6240245 9.92510236,19.8136727 C10.0016297,19.4088468 10.0909117,19.0541683 10.1291754,18.7004016 C10.2184574,17.8013964 10.2694756,16.9160678 10.3332485,16.0179744 C10.346003,15.841091 10.0781571,15.4235004 9.92510236,15.3724413 C9.13249717,15.131734 8.62231454,14.5627896 8.21416841,13.8926386 C7.7796021,13.1832816 7.5764401,12.4119242 7.53726535,11.6022725 L7.53726535,11.4627718 C7.53726535,11.450007 7.55001992,11.4372422 7.56277447,11.3989479 C7.664811,11.4883013 7.7796021,11.5639782 7.88163864,11.6524199 C8.34171406,12.032628 8.813633,12.4000713 9.2481993,12.8039854 C9.77113651,13.2972529 10.1036663,13.9044917 10.1546845,14.6384665 C10.1674391,14.8281146 10.1546845,15.0186745 10.1291754,15.1946461 C10.0909117,15.3724413 10.1801937,15.4481182 10.3332485,15.5748542 C10.3332485,15.3724413 10.346003,15.2210875 10.3332485,15.0688219 C10.2567211,13.942786 10.1291754,12.8295149 9.86041846,11.7290086 C9.79090436,11.4183029 9.51532533,11.1974359 9.19718103,11.1974467 C8.48201428,11.1846819 7.9326569,10.8300034 7.44798339,10.3750302 C6.86036232,9.83070355 6.51598903,9.14778785 6.27274122,8.40104827 C6.27274122,8.38828348 6.2608977,8.36275394 6.2608977,8.3372244 C6.2608977,8.32537139 6.27365227,8.31260661 6.27365224,8.30075357 C6.28640682,8.30075357 6.29916136,8.28707703 6.31191596,8.28707703 C6.97515339,8.56516687 7.66481103,8.81863892 8.31620494,9.13502309 C8.89016041,9.42678947 9.31197214,9.88176267 9.45227237,10.526384 C9.47778148,10.6658848 9.50329063,10.8053856 9.49053606,10.9567394 C9.47778148,11.120858 9.56706344,11.1846819 9.72011824,11.2485058 C9.72011824,11.1974467 9.73287281,11.1463876 9.72011824,11.109005 C9.41454053,9.98501065 9.00429399,8.89217894 8.49476886,7.84486862 C8.43099602,7.71722084 8.04835904,7.54033745 7.90714775,7.59139657 C6.93688967,7.89501596 6.14610659,7.54033745 5.41818527,6.94586344 C5.05454699,6.64278701 4.75133015,6.27374793 4.5244546,5.85812191 C4.66475482,5.85812191 4.7923005,5.84535712 4.90709158,5.85812191 C5.54573092,5.90826924 6.18437028,5.88365145 6.79658948,6.09882917 C7.42247427,6.3130951 7.86888409,6.69330318 8.02284992,7.35068931 C8.06111361,7.51480791 8.17590472,7.51480791 8.32895948,7.55310224 C8.29069579,7.46466055 8.27794122,7.41451321 8.2524321,7.36345407 C7.82124223,6.5275857 7.31698853,5.73154498 6.74557121,4.9846463 C6.63078011,4.84605728 6.28640682,4.75670383 6.13335202,4.83329249 C5.09932112,5.36485438 4.15457216,5.13691187 3.27268504,4.4658492 C3.04310286,4.3017306 2.86453891,4.07378813 2.66046585,3.87137519 C2.67322042,3.84584565 2.68597496,3.83399262 2.69872957,3.80755129 C2.8007661,3.79569829 2.91555721,3.7710805 3.01759371,3.75740395 C3.56695109,3.66896226 4.1163085,3.52946148 4.6775094,3.59328535 C5.34165788,3.66896226 5.90285878,3.90966952 6.19712486,4.56705565 C6.2608977,4.70655647 6.27365224,4.70655647 6.515989,4.66826213 C6.27365224,4.3901723 6.06957918,4.12484724 5.82633139,3.88413998 C5.46920353,3.53037323 5.1120757,3.18845952 4.74219326,2.83378099 C4.67963127,2.77859591 4.60458823,2.7394797 4.52354357,2.71980975 C3.55510757,2.65689763 2.82718624,2.17639486 2.27782886,1.41689049 C1.99830373,1.03617561 1.7905253,0.607617733 1.66469864,0.152265569 C1.65194407,0.113971238 1.65194407,0.0629121198 1.63918953,0 C1.91978998,0.101206451 2.17488131,0.189648145 2.43088366,0.278089839 C3.04310283,0.493267558 3.6434785,0.733974821 4.1163085,1.21447756 C4.48619091,1.59377385 4.72852766,2.0113645 4.6775094,2.55569115 C4.6775094,2.59398548 4.70301851,2.6568976 4.74128224,2.68242717 C5.57124009,3.40272542 6.29916139,4.21328891 6.96239882,5.07399975 C6.97515339,5.09861754 7.01432811,5.11138233 7.02617166,5.13691187 C7.03983726,5.12414709 7.06534641,5.12414709 7.07810095,5.1113823 C7.02708269,4.99741106 7.00066251,4.85882203 6.92413513,4.78314513 C6.15886117,3.95981686 5.7880677,2.9732818 5.71245134,1.87277548 C5.6732766,1.39136095 5.71245134,0.910858179 5.72429486,0.430355408 C5.72429486,0.354678501 5.76255855,0.290854596 5.80082228,0.152265569 C6.05591361,0.430355408 6.28640685,0.644621342 6.47772531,0.898093392 C7.01432814,1.60653864 7.40971967,2.39157255 7.51175623,3.28966597 C7.57552907,3.83399262 7.55001992,4.35278972 7.18013748,4.80776292 C7.15462837,4.84605725 7.12911922,4.90896937 7.14187379,4.94726373 C7.16738291,5.19982399 7.20564663,5.4396195 7.37145598,5.66756198 C7.9845862,6.49089025 8.48201428,7.38898364 8.91566953,8.31169482 L8.99310797,8.46396039 C9.00586254,8.46396039 9.03137166,8.45210739 9.04412624,8.45210739 C9.01861712,8.36275394 9.01861712,8.24969446 8.9803534,8.17310579 C8.44375056,7.24948283 8.26518664,6.25018298 8.31529388,5.20073578 C8.35446863,4.55520265 8.50752343,3.94796389 8.80087845,3.36534288 C8.81363303,3.3279603 8.83914215,3.30151897 8.87740584,3.23860685 C8.94117868,3.3398133 9.01861712,3.416402 9.05688081,3.50484366 C9.61808174,4.64364432 9.89868219,5.84535712 9.78389108,7.12365859 C9.74995175,7.54826586 9.55892963,7.94492164 9.2481993,8.23601791 C9.20993561,8.27431225 9.15891734,8.33813615 9.17167192,8.37551873 C9.17167192,8.62899078 9.15891734,8.86969804 9.26095387,9.1222583 C9.65634543,10.0704991 9.95061148,11.0460929 10.14193,12.0453927 C10.14193,12.0572457 10.1546845,12.0827753 10.2184574,12.0955401 C10.2184574,11.9943337 10.2439665,11.8803624 10.2312119,11.7791559 C10.1546845,11.2102115 10.0143843,10.6403553 9.98887517,10.0714108 C9.9378569,8.89522758 10.3332485,7.86948641 11.1121881,6.97139299 C11.1249426,6.9586282 11.1504517,6.9586282 11.20147,6.92124566 C11.2524883,7.09812901 11.3290157,7.26224761 11.3672794,7.43913097 C11.5968616,8.54054905 11.6223707,9.64105538 11.3545248,10.7287969 C11.2397337,11.2348293 10.9718878,11.6524199 10.4863033,11.9049802 C10.4480396,11.9186567 10.4097759,11.9560393 10.4097759,11.9815689 C10.3715122,12.2222761 10.2694756,12.4748364 10.3077393,12.7027789 C10.4735487,13.7786674 10.5373215,14.8545559 10.5628307,15.9295327 C10.5628307,15.9541505 10.5755852,15.9933566 10.5755852,16.0179744 C10.5883398,16.0179744 10.6138489,16.0179744 10.6266035,16.0307392 C10.6393581,15.9422975 10.6776217,15.841091 10.6776217,15.7517376 C10.6648672,15.119881 10.6521126,14.4871127 10.8306765,13.8798739 C11.1495407,12.8295149 11.7116526,11.9560393 12.6181379,11.2986532 C12.6308925,11.2731236 12.6691562,11.247594 12.732929,11.2102115 L12.732929,11.2102115 Z" id="路径"></path>
                            </g>
                        </g>
                    </g>
                </g>
            </g>
        </g>
    </g>
</svg>