<?xml version="1.0" encoding="UTF-8"?>
<svg width="12px" height="12px" viewBox="0 0 12 12" version="1.1" xmlns="http://www.w3.org/2000/svg" xmlns:xlink="http://www.w3.org/1999/xlink">
    <title>icon/搜素</title>
    <g id="icon/搜素" stroke="none" stroke-width="1" fill="none" fill-rule="evenodd">
        <rect id="矩形" x="0" y="0" width="12" height="12"></rect>
        <g id="编组-9" transform="translate(1.000000, 0.750000)" fill="#758DB1" fill-rule="nonzero">
            <path d="M4.86960799,0 C7.55901822,0 9.73921598,2.18019776 9.73921598,4.86960799 C9.73921598,6.16274479 9.23516934,7.3381552 8.41282864,8.2100866 L9.65566672,9.45396095 C9.84583674,9.64413097 9.84583674,9.95245749 9.65566672,10.1426275 C9.4654967,10.3327975 9.15717017,10.3327975 8.96700015,10.1426275 L7.67476889,8.8505728 C6.88177627,9.41037369 5.91409475,9.73921598 4.86960799,9.73921598 C2.18019776,9.73921598 0,7.55901822 0,4.86960799 C0,2.18019776 2.18019776,0 4.86960799,0 Z M4.86960799,1 C2.73248251,1 1,2.73248251 1,4.86960799 C1,7.00673347 2.73248251,8.73921598 4.86960799,8.73921598 C7.00673347,8.73921598 8.73921598,7.00673347 8.73921598,4.86960799 C8.73921598,2.73248251 7.00673347,1 4.86960799,1 Z" id="形状结合"></path>
        </g>
    </g>
</svg>