<?xml version="1.0" encoding="UTF-8"?>
<svg width="20px" height="20px" viewBox="0 0 20 20" version="1.1" xmlns="http://www.w3.org/2000/svg" xmlns:xlink="http://www.w3.org/1999/xlink">
    <title>图表icon/common/arrow_down</title>
    <g id="图表icon/common/arrow_down" stroke="none" stroke-width="1" fill="none" fill-rule="evenodd">
        <path d="M7.76712428,2.63561745 L14.397829,9.38688049 C14.7321395,9.72726934 14.7321395,10.2727307 14.397829,10.6131195 L7.76712428,17.3643825 C7.42850773,17.7091558 6.87451085,17.7141467 6.52973763,17.3755302 C6.52598835,17.3718479 6.52227233,17.3681318 6.51859,17.3643825 L5.60217095,16.4313013 C5.26786047,16.0909125 5.26786047,15.5454512 5.60217095,15.2050623 L10.7142857,10 L10.7142857,10 L5.60217095,4.79493769 C5.26786047,4.45454884 5.26786047,3.90908752 5.60217095,3.56869867 L6.51859,2.63561745 C6.85720656,2.29084423 7.41120343,2.28585327 7.75597666,2.62446982 C7.75972593,2.62815215 7.76344196,2.63186818 7.76712428,2.63561745 Z" id="icon_arrow_right" fill="#BFBFBF" transform="translate(10.000000, 10.000000) rotate(-270.000000) translate(-10.000000, -10.000000) "></path>
    </g>
</svg>