<?xml version="1.0" encoding="UTF-8"?>
<svg width="14px" height="14px" viewBox="0 0 14 14" version="1.1" xmlns="http://www.w3.org/2000/svg" xmlns:xlink="http://www.w3.org/1999/xlink">
    <title>配置理由问号</title>
    <defs>
        <linearGradient x1="0.783981643%" y1="50%" x2="100%" y2="50%" id="linearGradient-1">
            <stop stop-color="#74AEFF" offset="0%"></stop>
            <stop stop-color="#4693FF" offset="100%"></stop>
        </linearGradient>
    </defs>
    <g id="卡片设计" stroke="none" stroke-width="1" fill="none" fill-rule="evenodd">
        <g id="2.6.1.1.挑选产品-省心配-保险规划结果卡片" transform="translate(-44.000000, -361.000000)">
            <g id="编组-3" transform="translate(16.000000, 110.000000)">
                <g id="编组-13" transform="translate(0.000000, 208.000000)">
                    <g id="推荐理由" transform="translate(16.000000, 33.000000)">
                        <g id="配置理由问号" transform="translate(12.000000, 10.000000)">
                            <rect id="矩形" fill="#000000" fill-rule="nonzero" opacity="0" x="0" y="0" width="14" height="14"></rect>
                            <path d="M7.028,0.742 C7.896,0.742 8.71033333,0.907666667 9.471,1.239 C10.2316667,1.57033333 10.8966667,2.01833333 11.466,2.583 C12.0353333,3.14766667 12.4833333,3.81033333 12.81,4.571 C13.1366667,5.33166667 13.3,6.146 13.3,7.014 C13.3,7.882 13.1366667,8.694 12.81,9.45 C12.4833333,10.206 12.0353333,10.8686667 11.466,11.438 C10.8966667,12.0073333 10.2316667,12.4553333 9.471,12.782 C8.71033333,13.1086667 7.896,13.272 7.028,13.272 C6.16,13.272 5.348,13.1086667 4.592,12.782 C3.836,12.4553333 3.17333333,12.0073333 2.604,11.438 C2.03466667,10.8686667 1.58666667,10.206 1.26,9.45 C0.933333333,8.694 0.77,7.882 0.77,7.014 C0.77,6.146 0.933333333,5.33166667 1.26,4.571 C1.58666667,3.81033333 2.03466667,3.14766667 2.604,2.583 C3.17333333,2.01833333 3.836,1.57033333 4.592,1.239 C5.348,0.907666667 6.16,0.742 7.028,0.742 L7.028,0.742 Z M7.042,11.298 C7.28466667,11.298 7.48766667,11.2163333 7.651,11.053 C7.81433333,10.8896667 7.896,10.6913333 7.896,10.458 C7.896,10.2153333 7.81433333,10.0123333 7.651,9.849 C7.48766667,9.68566667 7.28466667,9.604 7.042,9.604 C6.79933333,9.604 6.59633333,9.68566667 6.433,9.849 C6.26966667,10.0123333 6.188,10.2153333 6.188,10.458 C6.188,10.6913333 6.26966667,10.8896667 6.433,11.053 C6.59633333,11.2163333 6.79933333,11.298 7.042,11.298 Z M7.756,7.854 C7.74666667,7.70466667 7.84,7.546 8.036,7.378 C8.232,7.21 8.45133333,7.02333333 8.694,6.818 C8.93666667,6.61266667 9.16066667,6.38166667 9.366,6.125 C9.57133333,5.86833333 9.68333333,5.572 9.702,5.236 C9.72066667,4.872 9.68333333,4.53133333 9.59,4.214 C9.49666667,3.89666667 9.34266667,3.62366667 9.128,3.395 C8.91333333,3.16633333 8.63566667,2.98433333 8.295,2.849 C7.95433333,2.71366667 7.55533333,2.646 7.098,2.646 C6.52866667,2.646 6.055,2.74633333 5.677,2.947 C5.299,3.14766667 4.99333333,3.39033333 4.76,3.675 C4.52666667,3.95966667 4.36333333,4.25366667 4.27,4.557 C4.17666667,4.86033333 4.13466667,5.11466667 4.144,5.32 C4.15333333,5.56266667 4.23033333,5.74 4.375,5.852 C4.51966667,5.964 4.676,6.02233333 4.844,6.027 C5.012,6.03166667 5.166,5.985 5.306,5.887 C5.446,5.789 5.516,5.64666667 5.516,5.46 C5.516,5.348 5.551,5.21033333 5.621,5.047 C5.691,4.88366667 5.78666667,4.72733333 5.908,4.578 C6.02933333,4.42866667 6.17633333,4.30266667 6.349,4.2 C6.52166667,4.09733333 6.71533333,4.046 6.93,4.046 C7.35,4.046 7.686,4.151 7.938,4.361 C8.19,4.571 8.30666667,4.83466667 8.288,5.152 C8.288,5.31066667 8.24133333,5.45766667 8.148,5.593 C8.05466667,5.72833333 7.93566667,5.859 7.791,5.985 C7.64633333,6.111 7.49233333,6.237 7.329,6.363 C7.16566667,6.489 7.01166667,6.61966667 6.867,6.755 C6.72233333,6.89033333 6.601,7.03733333 6.503,7.196 C6.405,7.35466667 6.35133333,7.52733333 6.342,7.714 L6.356,8.246 C6.356,8.386 6.42133333,8.519 6.552,8.645 C6.68266667,8.771 6.85533333,8.83866667 7.07,8.848 C7.28466667,8.83866667 7.455,8.76866667 7.581,8.638 C7.707,8.50733333 7.76533333,8.358 7.756,8.19 L7.756,7.854 L7.756,7.854 Z" id="形状" fill="url(#linearGradient-1)"></path>
                        </g>
                    </g>
                </g>
            </g>
        </g>
    </g>
</svg>