<?xml version="1.0" encoding="UTF-8"?>
<svg width="16px" height="16px" viewBox="0 0 16 16" version="1.1" xmlns="http://www.w3.org/2000/svg" xmlns:xlink="http://www.w3.org/1999/xlink">
    <title>保费共计</title>
    <defs>
        <linearGradient x1="50%" y1="0%" x2="50%" y2="100%" id="linearGradient-1">
            <stop stop-color="#93ABFE" offset="0%"></stop>
            <stop stop-color="#4B79FF" offset="100%"></stop>
        </linearGradient>
    </defs>
    <g id="卡片设计" stroke="none" stroke-width="1" fill="none" fill-rule="evenodd">
        <g id="2.6.1.1.挑选产品-省心配-保险规划结果卡片" transform="translate(-28.000000, -960.000000)">
            <g id="编组-3" transform="translate(16.000000, 110.000000)">
                <g id="编组-13" transform="translate(0.000000, 208.000000)">
                    <g id="编组-11" transform="translate(0.000000, 626.000000)">
                        <g id="保费共计" transform="translate(12.000000, 16.000000)">
                            <rect id="矩形" x="0" y="0" width="16" height="16"></rect>
                            <g id="编组" transform="translate(3.000000, 1.000000)" fill="url(#linearGradient-1)" fill-rule="nonzero">
                                <path d="M2.42499999,9.25405855 C0.969999995,8.38259423 0,6.79584671 0,4.98335844 C0,2.23115863 2.2375,0 5,0 C7.7625,0 10,2.23115863 10,4.98335844 C10,6.79584671 9.02875,8.38259424 7.57500001,9.25405855 C7.49375001,9.70029027 7.29875,10.1045237 7.02,10.44051 L2.98,10.44051 C2.69819677,10.1034368 2.50629404,9.69411853 2.42374999,9.25405855 L2.42499999,9.25405855 Z M8.57125,5.45715153 C8.58233093,3.37401502 6.98400863,1.67528672 5,1.66155696 C4.68375,1.66155696 4.52375,1.82036296 4.52375,2.13535006 C4.52375,2.21409684 4.68375,2.37159039 5,2.37159039 C6.525,2.37159039 7.8575,3.70109845 7.8575,5.45715153 C7.8575,5.53589831 8.0175,5.69470431 8.33250001,5.69470431 C8.41125,5.69470431 8.57125001,5.53589831 8.57125,5.45846398 L8.57125,5.45715153 Z M2.8575,11.6256489 C2.8575,11.3644721 3.07000001,11.1531683 3.33249999,11.1531683 L6.66750001,11.1531683 C6.93000001,11.1531683 7.1425,11.3631597 7.1425,11.6256489 C7.1425,11.8881382 6.92999999,12.1007545 6.66750001,12.1007545 L3.33249999,12.1007545 C3.20961366,12.10428 3.09044647,12.0562933 3.00132069,11.967394 C2.91219492,11.8784947 2.86044438,11.7559979 2.8575,11.6269614 L2.8575,11.6256489 Z M6.92,12.8134128 C6.56999999,13.5155715 5.84124999,13.9998642 5,13.9998642 C4.1999128,14.0090431 3.4607701,13.5522947 3.08,12.8134128 L6.92,12.8134128 Z" id="形状"></path>
                            </g>
                        </g>
                    </g>
                </g>
            </g>
        </g>
    </g>
</svg>