<?xml version="1.0" encoding="UTF-8"?>
<svg width="14px" height="14px" viewBox="0 0 14 14" version="1.1" xmlns="http://www.w3.org/2000/svg" xmlns:xlink="http://www.w3.org/1999/xlink">
    <title>待补充</title>
    <g id="卡片设计" stroke="none" stroke-width="1" fill="none" fill-rule="evenodd">
        <g id="2.6.1.1.挑选产品-省心配-保险规划结果卡片" transform="translate(-241.000000, -494.000000)" fill-rule="nonzero">
            <g id="编组-3" transform="translate(16.000000, 110.000000)">
                <g id="编组-13" transform="translate(0.000000, 208.000000)">
                    <g id="编组-6" transform="translate(176.000000, 141.578456)">
                        <g id="编组-2备份" transform="translate(46.000000, 33.421544)">
                            <g id="待补充" transform="translate(3.000000, 1.000000)">
                                <rect id="矩形" fill="#000000" opacity="0" x="0" y="0" width="14" height="14"></rect>
                                <path d="M11.9205032,10.0825199 L7.85294419,3.3293226 C7.35754319,2.44281434 6.54924952,2.44281434 6.05383706,3.3293226 L1.98627806,10.0825314 C1.49087706,10.9690511 1.90806348,11.673051 2.89887693,11.673051 L11.033972,11.673051 C11.9987178,11.673051 12.4159042,10.9429719 11.9204917,10.0825199 L11.9205032,10.0825199 Z M6.57531722,5.36310783 C6.57531722,5.15452035 6.757837,4.97200057 6.96642448,4.97200057 C7.17501196,4.97200057 7.35754319,5.15452035 7.35754319,5.36310783 L7.35754319,8.10089299 C7.35754319,8.30948048 7.17501196,8.49200025 6.96642448,8.49200025 C6.757837,8.49200025 6.57531722,8.30948048 6.57531722,8.10089299 L6.57531722,5.36310783 L6.57531722,5.36310783 Z M6.94035677,10.1607345 C6.62746409,10.1607345 6.39279745,9.90000012 6.39279745,9.61318661 C6.39279745,9.32637309 6.65354326,9.06562728 6.94035677,9.06562728 C7.22717029,9.06562728 7.4879161,9.32637309 7.4879161,9.61318661 C7.4879161,9.90000012 7.25324945,10.1607345 6.94035677,10.1607345 Z" id="形状" fill="#FFFFFF"></path>
                            </g>
                        </g>
                    </g>
                </g>
            </g>
        </g>
    </g>
</svg>