<svg xmlns="http://www.w3.org/2000/svg" viewBox="0 0 16 16">
  <g fill="#095BDD" fill-rule="evenodd">
    <path d="M7.992 1a6.8 6.8 0 0 1 2.732.554q1.28.555 2.224 1.498a7.1 7.1 0 0 1 1.498 2.217Q15 6.54 15 7.992a6.8 6.8 0 0 1-.554 2.732 7.1 7.1 0 0 1-1.498 2.224 7.1 7.1 0 0 1-2.224 1.498A6.8 6.8 0 0 1 7.992 15a6.75 6.75 0 0 1-2.723-.554 7.1 7.1 0 0 1-2.217-1.498 7.1 7.1 0 0 1-1.498-2.224A6.8 6.8 0 0 1 1 7.992q0-1.45.554-2.723a7.1 7.1 0 0 1 1.498-2.217A7.1 7.1 0 0 1 5.27 1.554 6.75 6.75 0 0 1 7.992 1" opacity=".2"/>
    <path fill-rule="nonzero" d="M11.265 7c.406 0 .735.448.735 1s-.329 1-.735 1h-6.53C4.329 9 4 8.552 4 8s.329-1 .735-1z"/>
  </g>
</svg>
