<svg xmlns="http://www.w3.org/2000/svg" viewBox="0 0 16 16">
  <path fill="#095BDD" d="M7.991 0q1.659 0 3.122.633a8.1 8.1 0 0 1 2.541 1.713 8.1 8.1 0 0 1 1.713 2.532Q16 6.333 16 7.991a7.8 7.8 0 0 1-.633 3.122 8.1 8.1 0 0 1-1.713 2.541 8.1 8.1 0 0 1-2.541 1.713A7.8 7.8 0 0 1 7.99 16a7.7 7.7 0 0 1-3.113-.633 8.1 8.1 0 0 1-2.532-1.713 8.1 8.1 0 0 1-1.713-2.541A7.8 7.8 0 0 1 0 7.99q0-1.658.633-3.113a8.1 8.1 0 0 1 1.713-2.532A8.1 8.1 0 0 1 4.878.633 7.7 7.7 0 0 1 7.991 0M8 3.429c-.631 0-1.143.375-1.143.84v2.588H4.268c-.43 0-.785.441-.834 1.01L3.43 8c0 .631.375 1.143.84 1.143l2.588-.001v2.59c0 .43.441.785 1.01.834L8 12.57c.631 0 1.143-.375 1.143-.84l-.001-2.589h2.59c.43 0 .785-.44.834-1.009L12.57 8c0-.631-.375-1.143-.84-1.143H9.143V4.268c0-.43-.44-.785-1.009-.834Z"/>
</svg>
