<svg xmlns="http://www.w3.org/2000/svg" viewBox="0 0 16 16">
  <g fill="#095BDD" fill-rule="evenodd">
    <path d="M7.991 0q1.659 0 3.122.633a8.1 8.1 0 0 1 2.541 1.713 8.1 8.1 0 0 1 1.713 2.532Q16 6.333 16 7.991a7.8 7.8 0 0 1-.633 3.122 8.1 8.1 0 0 1-1.713 2.541 8.1 8.1 0 0 1-2.541 1.713A7.8 7.8 0 0 1 7.99 16a7.7 7.7 0 0 1-3.113-.633 8.1 8.1 0 0 1-2.532-1.713 8.1 8.1 0 0 1-1.713-2.541A7.8 7.8 0 0 1 0 7.99q0-1.658.633-3.113a8.1 8.1 0 0 1 1.713-2.532A8.1 8.1 0 0 1 4.878.633 7.7 7.7 0 0 1 7.991 0" opacity=".2"/>
    <path fill-rule="nonzero" d="M11.732 6.857c.464 0 .84.512.84 1.143s-.376 1.143-.84 1.143H4.268c-.464 0-.84-.512-.84-1.143s.376-1.143.84-1.143z"/>
  </g>
</svg>
