<svg xmlns="http://www.w3.org/2000/svg" viewBox="0 0 16 16">
  <g fill="none" fill-rule="evenodd" transform="translate(1 1)">
    <circle cx="7" cy="7" r="7" fill="#EBEBEB"/>
    <path fill="#999" fill-rule="nonzero" d="M4.396 4.396a.67.67 0 0 1 .947 0L7 6.053l1.657-1.657a.67.67 0 0 1 .884-.056l.063.056a.67.67 0 0 1 0 .947L7.947 7l1.657 1.657a.67.67 0 0 1 .056.884l-.056.063a.67.67 0 0 1-.947 0L7 7.947 5.343 9.604a.67.67 0 0 1-.884.056l-.063-.056a.67.67 0 0 1 0-.947L6.053 7 4.396 5.343a.67.67 0 0 1-.056-.884z"/>
  </g>
</svg>
