<svg xmlns="http://www.w3.org/2000/svg" viewBox="0 0 64 15">
  <path fill="#0749B1" d="M8.043 3.856v1.65h1.638v-1.65zm0 3.366v1.683h1.638V7.222zm0 3.399v1.797h1.638v-1.797zm6.782 1.797V14.2H8.043v.768H5.471V6.111a3.5 3.5 0 0 1-.655.294v1.863q-.476.163-.966.31v6.324H.262v-1.797H1.31V9.183q-.376.065-1.146.18A1 1 0 0 0 0 9.395v-2.14q.672-.066 1.31-.163V3.807H.131V2.01h1.18V.196H3.85V2.01h.966v1.797H3.85V6.57q.18-.033.54-.147.082-.016.131-.033V4.2Q6.111 2.78 6.716.261h2.375a11.5 11.5 0 0 1-.41 1.798h1V.556h2.605v1.503h2.408v1.797h-2.408v1.65h2.227v1.716h-2.227v1.683h2.227v1.716h-2.227v1.797zm4.963-9.101v-.752h-3.243V.85h3.243V.114h2.703V.85h2.85V.114h2.703V.85h3.194v1.715h-3.194v.752h-2.703v-.752h-2.85v.752zm1.425 8.17V9.853h3.997V9.15q.869-.375 1.77-.996h-5.144V6.52h8.894v1.617Q29.584 9.2 27.913 9.853h3.325v1.634h-3.325v3.366h-4.505v-1.634h1.802v-1.732zm-.77-7.958h2.72q-.099.279-.213.523h8.223v1.634h-9.075a8 8 0 0 1-1.212 1.47v7.762h-2.67V8.84q-.836.344-1.786.572v-2.01q1.54-.637 2.572-1.716h-2.474V4.052h3.67q.13-.244.245-.523m17.97-1.258q.295.98.41 1.585h.884V2.271zm5.766 6.422h-2.457a11.6 11.6 0 0 0 1.638 1.846v-.898h.82zm-7.748 0v2.271a10.9 10.9 0 0 0 2.13-2.271zm10.992-2.451h-5.865v.751h5.16v4.167h-2.604q1.425 1.079 3.309 1.798v1.944q-3.638-.865-5.865-2.925V15h-2.785v-3.056q-2.26 2.092-5.897 2.958v-1.944q2.016-.785 3.49-1.945h-2.474v-4.02h4.881v-.751h-5.831V4.526h5.831V4.07h-2.276a26 26 0 0 0-.41-1.798h-.066q-1.113 1.503-3.358 1.896V2.206q1.344-.67 1.95-2.206h2.473q-.097.343-.196.637h3.292v1.291q.967-.654 1.49-1.928h2.474L44 .441a2 2 0 0 0-.066.196h3.588v1.634h-1.818q.262.9.442 1.781h-2.343a17 17 0 0 0-.376-1.78h-.393a4.85 4.85 0 0 1-2.245 1.584h.77v.67h5.865zm3.931-3.513V6.47h.491V2.729zm2.539 0h-.491V6.47h.491zm0 9.771V8.088h-.491V12.5zm-2.539-4.412V12.5h.491V8.088zm7.748-5.36a4.3 4.3 0 0 1-.573.752h.458q.525.621.934 1.013a6.7 6.7 0 0 0 1.196-1.764zm1.884 10.279v-2.599h-2.097v2.599zm-4.39 1.797V8.61h6.683v6.193zm-.639-6.144V6.846q1.228-.391 2.195-.964-.59-.57-1.097-1.258-.525.278-1.114.425V2.99q1.245-.915 1.834-2.729h2.31q-.099.426-.213.785h3.768v1.797q-.705 1.782-1.819 2.974.738.408 2.179.915v2.026q-2.474-.54-4.013-1.454-1.72.996-4.03 1.356m-6.405 5.49V1.095h6.143V14.15z"/>
</svg>
