<svg xmlns="http://www.w3.org/2000/svg" viewBox="0 0 16 16">
  <defs>
    <linearGradient id="strategyTag-a" x1="50%" x2="50%" y1="100%" y2="0%">
      <stop offset="0%" stop-color="#A0CEFF"/>
      <stop offset="100%" stop-color="#82B4FF"/>
    </linearGradient>
  </defs>
  <path fill="url(#strategyTag-a)" d="M6.889 0c3.553 0 6.421 2.869 6.389 6.389 0 2.6-1.565 4.844-3.801 5.84C8.685 12.582 7.489 14 6.889 14s-1.987-1.463-2.845-1.892A6.4 6.4 0 0 1 .5 6.388 6.4 6.4 0 0 1 6.889 0m2.868 3.553c-.032-.065-.163-.065-.26-.033L5.52 4.824a.4.4 0 0 0-.228.228L3.988 9.03c-.065.098-.033.196.032.261.033.065.163.065.261.033L8.258 8.02a.4.4 0 0 0 .228-.228L9.79 3.814c.065-.098.032-.196-.033-.261M6.89 5.599a.8.8 0 0 1 .798.798.8.8 0 0 1-.798.799.784.784 0 0 1-.799-.799.8.8 0 0 1 .799-.798" transform="translate(1 1)"/>
</svg>
