<svg xmlns="http://www.w3.org/2000/svg" viewBox="0 0 16 16">
  <path fill="currentColor" d="M7.992 1a6.8 6.8 0 0 1 2.732.554q1.28.555 2.224 1.498a7.1 7.1 0 0 1 1.498 2.217Q15 6.54 15 7.992a6.8 6.8 0 0 1-.554 2.732 7.1 7.1 0 0 1-1.498 2.224 7.1 7.1 0 0 1-2.224 1.498A6.8 6.8 0 0 1 7.992 15a6.75 6.75 0 0 1-2.723-.554 7.1 7.1 0 0 1-2.217-1.498 7.1 7.1 0 0 1-1.498-2.224A6.8 6.8 0 0 1 1 7.992q0-1.45.554-2.723a7.1 7.1 0 0 1 1.498-2.217A7.1 7.1 0 0 1 5.27 1.554 6.75 6.75 0 0 1 7.992 1M8 4c-.552 0-1 .329-1 .735V7H4.735c-.375 0-.684.381-.73.875L4 8c0 .552.329 1 .735 1H7v2.265c0 .375.381.684.875.73L8 12c.552 0 1-.329 1-.735V9h2.265c.375 0 .684-.381.73-.875L12 8c0-.552-.329-1-.735-1H9V4.735c0-.375-.381-.684-.875-.73Z"/>
</svg>
