<svg xmlns="http://www.w3.org/2000/svg" viewBox="0 0 16 16">
  <g fill="currentColor">
    <path d="M6.972 5.999c0-.251-.187-.454-.417-.454H4.19c-.231 0-.418.203-.418.454s.187.454.418.454h2.365c.23 0 .417-.203.417-.454m-2.73-1.818h5.421c.26 0 .47-.204.47-.455a.46.46 0 0 0-.47-.454h-5.42c-.26 0-.47.203-.47.454s.21.455.47.455M11.1 9.323l-.483.836c.462.267.62.86.353 1.322l.838.482a1.933 1.933 0 0 0-.708-2.64m-1.65.99a.97.97 0 0 1 .684-.282v-.967a1.933 1.933 0 0 0-1.933 1.933h.966c0-.257.103-.503.283-.683m-.154 1.168-.836.482a1.933 1.933 0 0 0 2.64.708l-.483-.838a.967.967 0 0 1-1.321-.352m5.382-.484a4.54 4.54 0 0 0-2.272-3.928V3.283A2.286 2.286 0 0 0 10.12 1H3.784A2.286 2.286 0 0 0 1.5 3.282v9.976a2.286 2.286 0 0 0 2.284 2.283h6.508c.138 0 .276-.017.414-.04a4.55 4.55 0 0 0 3.972-4.504M3.784 14.632a1.376 1.376 0 0 1-1.375-1.374V3.283c0-.758.617-1.374 1.375-1.374h.464c.008 0 .016.005.025.005h2.373l.025-.005h3.45c.76 0 1.376.616 1.376 1.374v3.38a4.55 4.55 0 0 0-5.907 4.334c0 1.487.721 2.806 1.829 3.635zm7.133-.087h-.121a2 2 0 0 1-.243.061l-.027.005-.05.004q-.169.016-.342.017a3.64 3.64 0 0 1-3.636-3.635 3.64 3.64 0 0 1 3.636-3.635 3.64 3.64 0 0 1 3.635 3.635 3.64 3.64 0 0 1-2.852 3.548"/>
    <path d="M10.121.9a2.386 2.386 0 0 1 2.385 2.383l-.05 3.7a4.64 4.64 0 0 1 2.322 4.014 4.65 4.65 0 0 1-4.055 4.603c-.16.027-.298.04-.431.04H3.784A2.386 2.386 0 0 1 1.4 13.259V3.282A2.386 2.386 0 0 1 3.784.9zm0 .2H3.784C2.58 1.1 1.6 2.08 1.6 3.282v9.976c0 1.204.98 2.183 2.184 2.183h6.508c.12 0 .248-.013.401-.04a4.45 4.45 0 0 0 3.885-4.404c0-1.598-.859-3.05-2.272-3.928V3.283c0-1.204-.98-2.183-2.185-2.183m.013 6.162a3.74 3.74 0 0 1 3.735 3.735 3.74 3.74 0 0 1-2.93 3.646l-.022.002-.09-.005a2 2 0 0 1-.26.065l-.01.002-.016.002-.034.004c-.012 0-.012 0-.02.002a3.74 3.74 0 0 1-4.088-3.718 3.74 3.74 0 0 1 3.735-3.735M10.12 1.81c.814 0 1.476.66 1.476 1.474v3.38l-.13.095a4.45 4.45 0 0 0-5.777 4.239c0 1.414.671 2.719 1.789 3.555l-.06.18H3.784c-.814 0-1.475-.66-1.475-1.474V3.283c0-.813.661-1.474 1.475-1.474h.474l.03.007-.005-.002h2.352l.014-.002.022-.003zm-3.475.205H4.273c-.029-.003-.029-.003-.041-.006h.002-.45c-.66 0-1.203.503-1.269 1.145l-.006.13v9.975c0 .703.572 1.274 1.275 1.274h3.35l-.146-.129a4.63 4.63 0 0 1-1.492-3.16l-.006-.246a4.65 4.65 0 0 1 6.037-4.43l-.13-.036V3.283c0-.659-.503-1.202-1.145-1.268l-.13-.006-3.439-.001a.1.1 0 0 1-.037.006m3.488 5.448a3.54 3.54 0 0 0-3.536 3.535 3.54 3.54 0 0 0 3.865 3.519l.03-.003h.011l.015-.003.016-.002a3 3 0 0 0 .26-.063l.112-.001.172-.042a3.54 3.54 0 0 0 2.585-3.214l.005-.191a3.54 3.54 0 0 0-3.535-3.535m-.888 3.932.137.036c.24.414.77.556 1.184.316l.137.037.483.838-.037.136a2.033 2.033 0 0 1-2.777-.744l.037-.136zm.018.22-.664.383.031.05a1.834 1.834 0 0 0 2.279.61l.051-.027-.384-.666-.021.011a1.07 1.07 0 0 1-1.278-.34zm1.886-2.377a2.033 2.033 0 0 1 .744 2.776l-.136.037-.838-.483-.036-.137a.867.867 0 0 0-.317-1.184l-.037-.137.483-.836zm-.4.89.021.014c.428.318.56.916.286 1.39l.044-.091.666.384.027-.051a1.834 1.834 0 0 0-.61-2.278l-.05-.032zm-.616-1.163.1.1v.967l-.1.1a.87.87 0 0 0-.867.866l-.1.1h-.966l-.1-.1c0-1.123.91-2.033 2.033-2.033m-.1.204-.05.003A1.833 1.833 0 0 0 8.3 10.997l.003-.101h.769l.001-.02c.023-.198.101-.387.225-.543l.08-.09c.2-.2.472-.312.755-.312l-.1.005zm-3.48-3.723c.289 0 .518.25.518.554s-.23.554-.517.554H4.19c-.288 0-.518-.25-.518-.554s.23-.554.518-.554zm0 .2H4.19c-.174 0-.318.156-.318.354s.144.354.318.354h2.365c.173 0 .317-.156.317-.354s-.144-.354-.317-.354m3.11-2.473c.314 0 .57.247.57.554a.56.56 0 0 1-.57.555H4.242a.56.56 0 0 1-.57-.555c0-.307.255-.554.57-.554zm0 .2H4.242c-.206 0-.37.16-.37.354 0 .195.164.355.37.355h5.42c.206 0 .37-.16.37-.355a.36.36 0 0 0-.37-.354"/>
  </g>
</svg>
