<svg xmlns="http://www.w3.org/2000/svg" viewBox="0 0 16 16">
  <g fill="currentColor">
    <path d="M7.5 1.5V8h7q0-.51-.076-1A6.5 6.5 0 0 0 8 1.5zm1 1.023A5.5 5.5 0 0 1 13.41 7H8.5z"/>
    <path d="M8 1.4q.254 0 .508.02A6.603 6.603 0 0 1 14.6 8l-.1.1h-7L7.4 8V1.5l.1-.1zm-.4 6.5h6.797l-.005-.231a6 6 0 0 0-.026-.329l-.041-.325A6.4 6.4 0 0 0 8 1.6h-.4zm.909-5.477a5.6 5.6 0 0 1 4.999 4.559l-.098.118H8.5L8.4 7V2.523zm.091.211v4.265h4.686l-.022-.108a5.405 5.405 0 0 0-4.541-4.143z"/>
    <path d="M1.5 8a6.5 6.5 0 0 1 5-6.326v1.033A5.502 5.502 0 0 0 8 13.5 5.5 5.5 0 0 0 13.41 9h1.014A6.501 6.501 0 0 1 1.5 8"/>
    <path d="m6.477 1.577.123.097v1.033l-.073.096A5.402 5.402 0 0 0 8 13.4a5.4 5.4 0 0 0 5.311-4.418l.098-.082h1.015l.098.115a6.601 6.601 0 1 1-8.045-7.438m-.077.225-.12.032a6.4 6.4 0 1 0 8.045 7.15l-.021.115h-.813l-.03.15a5.6 5.6 0 0 1-5.223 4.346L8 13.6A5.6 5.6 0 0 1 6.473 2.61l-.073.022z"/>
  </g>
</svg>
