<svg xmlns="http://www.w3.org/2000/svg" viewBox="0 0 16 16">
  <path fill="currentColor" fill-rule="evenodd" d="M13.778 3.8c.399 0 .722.313.722.7s-.323.7-.722.7h-.722v7.7q0 .87-.635 1.485a2.12 2.12 0 0 1-1.532.615H5.11a2.12 2.12 0 0 1-1.532-.615 2 2 0 0 1-.635-1.485V5.2h-.722a.71.71 0 0 1-.722-.7c0-.387.323-.7.722-.7zM11.61 5.2H4.39v7.7q0 .29.212.495a.7.7 0 0 0 .51.205h5.778q.3 0 .51-.205a.66.66 0 0 0 .212-.495zM6.556 7.3c.398 0 .722.313.722.7v2.8c0 .387-.324.7-.722.7a.71.71 0 0 1-.723-.7V8c0-.387.324-.7.723-.7m2.888 0c.4 0 .723.313.723.7v2.8c0 .387-.324.7-.723.7a.71.71 0 0 1-.722-.7V8c0-.387.324-.7.722-.7m1.445-5.6a.71.71 0 0 0-.722-.7H5.833a.71.71 0 0 0-.722.7c0 .387.323.7.722.7h4.334a.71.71 0 0 0 .722-.7"/>
</svg>
