<svg xmlns="http://www.w3.org/2000/svg" class="deepThinking-icon" viewBox="0 0 1024 1024">
  <path d="m123.802 473.856.819.82 71.833-71.783-.87-.82a139.93 139.93 0 0 1-42.7-103.27c0-40.653 14.08-74.65 42.7-103.27a140.7 140.7 0 0 1 103.322-42.701c40.243 0 74.752 14.08 103.321 42.7l212.89 212.788 71.782-71.782-212.89-213.146C425.473 75.264 367.412 51.2 298.907 51.2c-68.455 0-126.567 24.064-175.104 72.602C75.264 171.93 51.2 230.4 51.2 298.803c0 68.455 24.064 126.464 72.602 175.053M549.58 123.802l-.87.819 71.782 71.731.87-.82a140.03 140.03 0 0 1 103.322-42.7c40.653 0 74.65 14.08 103.321 42.7 28.621 28.622 42.701 63.028 42.701 103.271s-14.08 74.65-42.7 103.27l-212.89 212.788 71.782 71.731 213.3-212.736c48.127-48.128 72.601-106.598 72.601-175.053 0-68.403-24.064-126.464-72.602-175.001S793.088 51.2 724.634 51.2c-68.045 0-126.516 24.064-175.104 72.602zM474.778 898.56l-.82.82c-48.537 48.537-107.008 72.6-175.104 72.6-68.454 0-126.976-24.063-175.104-72.6-48.486-48.538-72.55-106.6-72.55-175.002 0-68.455 24.064-126.516 72.192-175.053l213.3-212.787 71.782 71.782-212.89 212.736a140.6 140.6 0 0 0-42.7 103.322c0 40.192 14.08 74.65 42.7 103.27 28.672 28.62 62.669 42.7 103.322 42.7 40.704 0 74.752-14.08 103.321-42.7l.87-.87 71.783 71.782zm88.832-334.694c18.688-18.688 25.702-45.67 19.097-70.964a72.86 72.86 0 0 0-51.865-51.814 73.73 73.73 0 0 0-70.964 19.046 73.83 73.83 0 0 0 0 104.141c28.672 28.16 75.11 28.16 103.732-.41m335.257-14.95.87.818c48.538 48.128 72.602 106.599 72.602 175.463 0 68.454-24.473 126.925-72.601 175.001-48.59 48.538-106.65 72.602-175.104 72.602-68.506 0-126.976-24.474-175.104-72.602L336.64 687.002l71.782-71.68 212.89 212.736c28.62 28.62 63.027 42.7 103.322 42.7 40.243 0 74.65-14.08 103.321-42.7 28.621-28.672 42.701-62.618 42.701-103.27 0-40.654-14.08-74.65-42.7-103.271l-.871-.87z"/>
</svg>
