<svg xmlns="http://www.w3.org/2000/svg" viewBox="0 0 16 16">
  <path fill="currentColor" d="M9.413 2.547c.618 0 1.12.502 1.12 1.12l-.001.832 2.718.001a.35.35 0 0 1 .35.35v.14a.35.35 0 0 1-.35.35h-.58v6.955a1.12 1.12 0 0 1-1.12 1.12H4.475a1.12 1.12 0 0 1-1.12-1.12V5.339l-.605.001a.35.35 0 0 1-.35-.35v-.14a.35.35 0 0 1 .35-.35h2.742v-.833c0-.577.438-1.052.999-1.113l.122-.007ZM11.83 5.34H4.195v6.956c0 .155.126.28.28.28h7.075a.28.28 0 0 0 .28-.28zM9.505 6.6a.35.35 0 0 1 .35.35v3.5a.35.35 0 0 1-.35.35h-.14a.35.35 0 0 1-.35-.35v-3.5a.35.35 0 0 1 .35-.35zm-2.8 0a.35.35 0 0 1 .35.35v3.5a.35.35 0 0 1-.35.35h-.14a.35.35 0 0 1-.35-.35v-3.5a.35.35 0 0 1 .35-.35zm2.708-3.213h-2.8a.28.28 0 0 0-.28.28l-.001.832h3.36v-.832a.28.28 0 0 0-.215-.272z"/>
</svg>
