<svg xmlns="http://www.w3.org/2000/svg" viewBox="0 0 16 16">
  <path fill="currentColor" d="M14.5 9.987v4.235c0 .43-.338.778-.756.778H2.256a.767.767 0 0 1-.756-.778V9.987c0-.43.338-.778.756-.778.417 0 .756.348.756.778v3.457h9.976V9.987c0-.43.339-.778.756-.778.418 0 .756.348.756.778m-7.04.975c.142.15.337.234.54.234a.75.75 0 0 0 .54-.234l3.015-3.168a.794.794 0 0 0-.01-1.1.74.74 0 0 0-1.07.012l-1.72 1.806V1.778A.767.767 0 0 0 8 1a.767.767 0 0 0-.756.778v6.734L5.525 6.706a.74.74 0 0 0-1.069-.012.794.794 0 0 0-.01 1.1z"/>
</svg>
