<svg xmlns="http://www.w3.org/2000/svg" class="expert-icon" viewBox="0 0 1024 1024">
  <path d="M726.747 627.2a47.25 47.25 0 0 1 59.392 2.194A428.4 428.4 0 0 1 933.01 953.051c0 26.405-21.211 47.982-47.543 47.982H137.51a47.76 47.76 0 0 1-47.543-47.982c-.073-124.416 53.613-242.614 146.87-323.657 16.823-14.628 41.546-15.58 59.393-2.194a357 357 0 0 0 215.259 71.314c78.263 0 152.722-24.649 215.26-71.314m22.821 99.84-8.923 5.632a451 451 0 0 1-229.157 61.879 450.93 450.93 0 0 1-247.881-73.436l9.728 5.925-5.559 6.07a332.07 332.07 0 0 0-78.629 167.937l-.585 3.95h645.705l-.438-3.95a332.07 332.07 0 0 0-78.702-167.936zM417.353 37.45a314.8 314.8 0 0 1 188.27-.147l361.838 112.64c19.968 6.29 33.572 24.868 33.572 45.934a47.98 47.98 0 0 1-33.572 45.86l-170.496 52.956.073 73.216c0 154.55-119.955 280.795-270.848 288.548l-14.702.366c-157.77 0-285.55-129.39-285.55-288.914l-.073-73.363-40.887-12.8.073 120.613c0 24.064-17.554 44.032-40.52 47.47l-7.022.512a47.76 47.76 0 0 1-47.543-47.982l-.073-150.236-33.354-10.386a47.91 47.91 0 0 1-33.06-38.985l-.512-6.73c0-21.064 13.604-39.643 33.572-45.86zm-96.329 286.865v43.667c0 106.423 85.577 192.877 190.464 192.877 104.96 0 190.39-86.454 190.39-192.877l-.072-43.52-96.183 29.988a315.8 315.8 0 0 1-74.972 13.824l-19.017.585c-32.036 0-63.78-4.9-94.354-14.409l-96.183-30.135zm124.49-195.291-214.09 66.853 214.09 66.852c37.595 11.776 77.53 13.239 115.784 4.389l16.238-4.389 214.601-66.852-214.601-66.78a220.75 220.75 0 0 0-99.182-7.68l-16.53 3.145-16.238 4.389z"/>
  <path d="M86.528 522.825c0 28.526 22.82 51.639 50.98 51.639a51.346 51.346 0 0 0 50.981-51.639 51.346 51.346 0 0 0-50.98-51.566 51.346 51.346 0 0 0-50.981 51.566"/>
</svg>
