<svg xmlns="http://www.w3.org/2000/svg" viewBox="0 0 16 16">
  <g fill="currentColor">
    <path d="M13.657 3.598a1 1 0 0 0-.116-.069L8.968.889 8.835.812a1.93 1.93 0 0 0-1.794.02L2.355 3.535l-.098.057c-.568.351-.907.96-.907 1.63v5.417c0 .657.33 1.26.896 1.621l4.694 2.71.07.042.027.015a1.92 1.92 0 0 0 1.834 0l.04-.024.04-.024 4.577-2.64.154-.092c.54-.35.868-.941.877-1.589V5.22c0-.658-.345-1.277-.902-1.622m-.002 7.056c-.004.338-.177.65-.446.825l-4.72 2.724-.03.02-.034.02a1.04 1.04 0 0 1-.942 0l-.033-.02-.22.395.186-.415-2.856-1.647-1.842-1.065a1 1 0 0 1-.464-.851V5.224c0-.355.178-.677.471-.858L7.482 1.62a1 1 0 0 1 .472-.117q.238 0 .46.11l4.694 2.71.06.037c.3.18.487.51.487.861zM9.65 7.204v3.6c0 .632.979.632.979 0v-3.6c0-.632-.979-.632-.979 0M6.93 8.4v2.405c0 .631.978.631.978 0V8.401c0-.631-.979-.631-.979 0m-2.72.308v2.098c0 .63.978.63.978 0V8.709c0-.63-.978-.63-.978 0m6.612-4.826a.49.49 0 0 0-.38-.188H8.813c-.631 0-.631.98 0 .98h.58C8.15 5.955 6.39 6.796 4.583 6.71c-.631-.03-.628.95 0 .98 2.02.095 3.949-.816 5.368-2.206v.507c0 .631.979.631.979 0v-1.69a.39.39 0 0 0-.109-.42"/>
    <path d="M6.994.742A2.03 2.03 0 0 1 8.885.725l.133.078 4.566 2.636q.07.033.131.078c.581.36.944 1.01.944 1.703v5.44a2.02 2.02 0 0 1-.926 1.674l-.155.092-4.573 2.639-.03.017-.012.008-.044.026a2.02 2.02 0 0 1-1.932 0l-.025-.016-.072-.043-4.698-2.712a2.01 2.01 0 0 1-.942-1.705V5.224c0-.705.357-1.347.956-1.717l.099-.058zm6.604 2.937a1 1 0 0 0-.107-.063L8.918.976 8.789.9a1.83 1.83 0 0 0-1.698.016L2.406 3.622l-.096.056c-.539.333-.86.91-.86 1.546v5.416c0 .625.314 1.195.846 1.534l4.7 2.714.064.038.025.015a1.82 1.82 0 0 0 1.734.002l.041-.025.014-.008.028-.017 4.575-2.64.151-.089c.513-.332.823-.893.83-1.505V5.22c0-.623-.326-1.21-.854-1.537l.048-.08zM7.954 1.402q.26 0 .51.123l4.695 2.712.06.036c.331.197.536.56.536.947v5.435a1.1 1.1 0 0 1-.496.91L8.542 14.29l-.034.02-.037.022a1.14 1.14 0 0 1-1.037-.001l.056.025-.173.312-.178-.09.149-.332-2.778-1.602-1.846-1.067a1.1 1.1 0 0 1-.51-.936V5.224c0-.388.195-.743.521-.944l4.76-2.75a1.1 1.1 0 0 1 .52-.128m0 .2a.9.9 0 0 0-.422.104L2.778 4.45a.9.9 0 0 0-.424.773v5.416c0 .313.156.6.414.765l1.842 1.064 2.856 1.648.009.027.024-.007.032.018a.94.94 0 0 0 .842.002l.033-.02.033-.02 4.716-2.722a.9.9 0 0 0 .4-.743V5.22a.91.91 0 0 0-.438-.776l-.06-.035L8.37 1.7a.94.94 0 0 0-.416-.099M4.31 10.807c0 .497.778.497.778 0V8.709c0-.497-.778-.497-.778 0zm2.72-.001c0 .498.78.498.78 0V8.401c0-.498-.78-.498-.78 0zm2.721-.001c0 .498.779.498.779 0V7.204c0-.498-.779-.498-.779 0zm.69-7.21c.18 0 .347.085.46.225l-.01-.01.066.075a.46.46 0 0 1 .096.336l-.022.082v1.689c0 .764-1.179.764-1.179 0v-.275l-.05.047C8.391 7.052 6.63 7.801 4.858 7.797l-.28-.007c-.345-.016-.567-.286-.567-.611-.001-.33.226-.584.577-.567 1.705.08 3.45-.684 4.733-2.008l-.172.17h-.336c-.726 0-.763-1.064-.109-1.17l.11-.009zm0 .2H8.814c-.498 0-.498.78 0 .78h.58l.072.169C8.143 6.106 6.343 6.894 4.578 6.81c-.228-.01-.368.146-.367.367 0 .225.145.402.377.412 1.898.09 3.814-.728 5.293-2.176l.17.071v.507c0 .498.779.498.779 0l.006-1.723c.04-.114.008-.226-.084-.314l.069-.072-.078.062a.4.4 0 0 0-.233-.143zM4.118 8.601c.107-.654 1.17-.618 1.17.108v2.098c0 .764-1.178.764-1.178 0V8.709zm2.72-.309c.107-.653 1.171-.617 1.171.11v2.404c0 .765-1.179.765-1.179 0V8.401zM9.56 7.095c.106-.654 1.17-.618 1.17.109v3.6c0 .765-1.179.765-1.179 0v-3.6z"/>
  </g>
</svg>
