<svg xmlns="http://www.w3.org/2000/svg" class="novice-icon" viewBox="0 0 1024 1024">
  <path d="M605.989 532.7a49.74 49.74 0 0 1 59.099-25.015 499.27 499.27 0 0 1 284.087 222.354c8.85 14.994 8.923 33.572.22 49.006C859.72 930.158 693.174 1024 514.705 1024c-178.688 0-345.234-93.77-434.688-244.882a47.54 47.54 0 0 1-.073-49.152A499.27 499.27 0 0 1 364.032 507.61a49.74 49.74 0 0 1 59.173 25.088c22.674 46.007 57.417 84.7 100.937 112.933l-9.582-6.656 4.535-3.145a286.1 286.1 0 0 0 78.848-88.137zm151.698 129.316-3.072 5.12C719.067 723.09 678.4 771.438 632.1 807.716a39.205 39.205 0 0 1-47.69.366 519 519 0 0 1-32.694-27.428l-5.267-4.535a442 442 0 0 0-31.524-25.893l-.44-.365-.95.731c-6.949 4.974-14.629 11.19-24.869 19.968l-8.045 7.095-3.365 2.926c-15.652 13.824-23.406 20.48-32.695 27.501a39.35 39.35 0 0 1-47.908-.439c-51.932-40.886-97.06-96.987-135.46-161.865l9.873 16.238-1.243.95a397.5 397.5 0 0 0-83.968 84.847l-4.827 6.802 3.291 4.608A407.1 407.1 0 0 0 458.971 922.77l16.677 1.902v-117.76c0-19.09 14.19-34.816 32.549-37.815l6.217-.512c21.357 0 38.839 17.042 38.839 38.327v117.76l16.603-1.902a407.1 407.1 0 0 0 274.725-163.547l3.145-4.681-4.608-6.803a396 396 0 0 0-84.041-84.699l-1.463-1.024zm-401.481-47.982-3.219 1.317-15.579 6.948 1.902 3.072c23.698 37.523 50.03 71.168 78.628 98.743l3.219 2.926 4.242-3.657 1.682-1.463 1.756-1.536 7.972-6.949 6.29-5.485-14.409-11.557a383.3 383.3 0 0 1-69.412-77.458zm316.27 0-2.926 4.755c-19.456 28.818-42.789 54.857-69.486 77.531l-14.482 11.483 6.363 5.486 7.973 6.949 3.437 3.072 4.096 3.657 3.292-2.926a530.3 530.3 0 0 0 78.628-98.743l1.829-3.072-15.726-7.095-2.925-1.17zM514.413 0c143.945 0 261.12 114.395 261.12 255.269 0 140.873-117.175 255.268-261.12 255.268-143.872 0-261.12-114.395-261.12-255.268C253.294 114.395 370.542 0 514.414 0m0 97.426c-89.454 0-162.231 70.949-162.231 157.843 0 87.04 72.704 157.988 162.23 157.988s162.232-70.948 162.232-157.842c0-87.04-72.704-157.989-162.231-157.989"/>
</svg>
