<svg xmlns="http://www.w3.org/2000/svg" viewBox="0 0 16 16">
  <path fill="currentColor" d="M4.229 2h7.542c.955 0 1.729.739 1.729 1.65v8.7c0 .911-.774 1.65-1.729 1.65H4.23c-.955 0-1.729-.739-1.729-1.65v-8.7C2.5 2.739 3.274 2 4.229 2m0 .9a.8.8 0 0 0-.556.22.73.73 0 0 0-.23.53v8.7c0 .199.083.39.23.53s.347.22.556.22h7.542a.8.8 0 0 0 .556-.22.73.73 0 0 0 .23-.53v-8.7a.73.73 0 0 0-.23-.53.8.8 0 0 0-.556-.22zm2.514 8.7a.46.46 0 0 1-.472-.45.46.46 0 0 1 .472-.45h2.514c.26 0 .472.201.472.45s-.211.45-.472.45z"/>
</svg>
