<svg xmlns="http://www.w3.org/2000/svg" viewBox="0 0 16 16">
  <path fill="currentColor" d="M8.99 7.418c.614 0 1.214-.003 1.813.002.131.002.267.018.391.058.416.134.693.614.6 1.053-.22 1.042-.457 2.08-.676 3.123-.061.29-.142.559-.395.742-.139.1-.283.18-.464.18q-2.39-.002-4.781-.001c-.023 0-.045-.003-.084-.006-.003-.049-.009-.097-.009-.145q.004-2.295.004-4.589c0-.1.025-.137.132-.155.886-.143 1.623-.956 1.692-1.851.018-.246.02-.491.125-.726.272-.609 1.01-.638 1.405-.27a1.1 1.1 0 0 1 .33.632 4.2 4.2 0 0 1-.075 1.876c-.005.017-.004.036-.008.077m-4.074.72c0-.26-.14-.41-.392-.415a23 23 0 0 0-1.003 0c-.24.006-.382.154-.382.395q-.005 2.033 0 4.065c0 .248.15.39.397.392q.466.002.934 0c.314 0 .447-.135.447-.455V8.138m5.44-1.51c.252-.103.503-.21.758-.306a.28.28 0 0 1 .18-.002c.254.097.505.205.757.308.197.081.277.023.26-.188-.023-.268-.048-.536-.06-.804a.3.3 0 0 1 .065-.194c.17-.213.35-.418.526-.627.118-.14.089-.237-.086-.281-.269-.067-.54-.126-.807-.198a.3.3 0 0 1-.156-.113c-.154-.235-.297-.477-.446-.715-.093-.147-.195-.148-.286-.002q-.22.351-.432.71a.25.25 0 0 1-.177.128q-.405.09-.808.192-.259.066-.086.271c.177.208.35.42.533.621.069.075.081.15.072.243-.026.26-.045.52-.067.78-.009.205.066.256.26.177"/>
</svg>
