<svg xmlns="http://www.w3.org/2000/svg" viewBox="0 0 16 16">
  <path fill="currentColor" d="M7.914 12.515h.497c.076 0 .191-.04.267-.04.039 0 .115-.039.153-.039.077-.039.191-.039.268-.078.038 0 .076-.039.114-.039.115-.039.191-.078.306-.117.038 0 .038-.04.076-.04.115-.038.23-.116.344-.155.382-.196.688-.47.993-.782a2 2 0 0 0 .268-.313c0-.039.038-.039.038-.078a4.54 4.54 0 0 0 .955-2.814h-1.031c-.039 0-.039 0-.077-.04v-.078l1.796-2.697c0-.039.038-.039.076-.039s.038 0 .076.04l1.681 2.657v.078c0 .04-.038.04-.076.04h-1.032c0 1.25-.382 2.423-1.031 3.4 0 0 0 .04-.038.04a1.7 1.7 0 0 1-.23.273c-.038.039-.038.078-.076.117-.114.117-.229.274-.344.391l-.038.039a6.5 6.5 0 0 1-1.299 1.016s-.038 0-.038.04c-.153.078-.267.156-.42.195-.038 0-.076.039-.115.039-.114.039-.229.117-.382.156-.076.04-.114.04-.19.078-.115.04-.23.079-.345.079-.076 0-.152.039-.229.039-.038 0-.076 0-.076.039-.115.039-.23.039-.306.039h-.114c-.191 0-.382.039-.573.039a5.54 5.54 0 0 1-3.286-1.094c-.305-.235-.382-.665-.152-1.017.229-.312.649-.39.955-.156.802.508 1.719.82 2.635.782M3.101 4.619s0-.04.038-.04c.077-.116.153-.234.268-.351l.038-.04c.573-.742 1.337-1.289 2.14-1.68.037 0 .037-.039.076-.039.114-.039.267-.117.42-.156.038 0 .114-.04.153-.04.114-.038.229-.078.343-.078.077 0 .153-.039.191-.039s.077 0 .115-.039c.076 0 .191-.039.267-.039s.115 0 .191-.039c.115 0 .268-.039.42-.039h.077c1.184 0 2.33.39 3.324 1.094.305.235.382.665.152 1.017-.229.312-.65.39-.955.156a4.35 4.35 0 0 0-2.56-.82c-.114 0-.267 0-.381.038h-.115c-.114 0-.19.04-.305.04-.039 0-.077.039-.115.039-.115.039-.191.039-.306.078-.038 0-.076.039-.076.039l-.344.117H6.12a4.14 4.14 0 0 0-1.643 1.29 4.7 4.7 0 0 0-.993 2.892h1.032c.038 0 .038 0 .076.04v.078l-1.72 2.658c0 .039-.037.039-.076.039-.038 0-.038 0-.076-.04L1 8.099V8.02c0-.04.038-.04.076-.04h1.032A5.6 5.6 0 0 1 3.1 4.62"/>
</svg>
