<svg xmlns="http://www.w3.org/2000/svg" viewBox="0 0 16 16">
  <g fill="currentColor">
    <path d="M.5 1.6c-.004-.516.272-.675.724-.569 1.202.283 2.403.572 3.606.856.992.234 1.986.461 2.977.7.366.089.686-.074 1.019-.15 1.624-.37 3.245-.758 4.866-1.14.363-.086.724-.182 1.088-.267.485-.113.721.105.72.55-.01 3.722-.006 7.445-.006 11.167 0 .396-.113.532-.51.626l-4.79 1.137c-.646.154-1.29.312-1.936.463-.275.064-.543.002-.811-.062q-3.205-.77-6.412-1.534c-.421-.1-.529-.227-.529-.658V7.17c0-1.856.01-3.713-.006-5.57m1.147.455c-.13-.031-.218-.046-.218.144.007 1.687.004 3.374.004 5.06q.015 2.506.004 5.013c0 .198.057.284.261.328.544.114 1.081.254 1.622.383 1.306.312 2.612.626 3.92.931.3.07.305.057.305-.237V8.7l.005-4.976c0-.207-.073-.282-.265-.326-.865-.197-1.728-.405-2.59-.611zm12.92.202c.001-.225-.056-.244-.252-.193-.554.145-1.111.276-1.668.408q-1.995.476-3.994.945c-.142.033-.202.094-.202.25q.007 5.036.002 10.073c0 .19.05.236.248.189q2.793-.676 5.59-1.328c.214-.05.273-.138.272-.343-.009-1.663-.005-3.326-.005-4.988.002-1.671-.004-3.342.009-5.013M3.067 9.4c.998.208 1.995.422 2.992.633.178.037.337.105.425.268.158.295-.079.647-.477.645-.456-.094-.96-.2-1.462-.303-.544-.112-1.087-.226-1.631-.333-.315-.062-.513-.312-.454-.59.05-.242.309-.383.608-.32m10.48.422c.003.243-.163.427-.435.483q-1.496.31-2.99.622c-.303.063-.558-.056-.622-.296-.075-.283.074-.513.404-.585a283 283 0 0 1 3.06-.651c.326-.068.58.13.583.427m-.007-2.316c.063.284-.118.492-.471.565-.934.194-1.866.395-2.799.592-.105.023-.211.04-.257.047-.306.001-.487-.128-.518-.326-.045-.284.072-.486.355-.554.452-.107.908-.196 1.362-.293.551-.118 1.104-.23 1.654-.354.34-.076.613.049.674.323m-10.437-.33q1.447.31 2.896.614c.478.1.66.432.41.759-.105.135-.181.166-.456.16-.303-.063-.669-.138-1.034-.215l-2.02-.43c-.339-.071-.5-.274-.44-.563.053-.267.318-.397.644-.327m10.444-1.799c-.001.241-.128.387-.403.449a123 123 0 0 1-3.087.651c-.28.056-.498-.064-.562-.303-.073-.273.052-.497.352-.566.629-.145 1.262-.272 1.894-.408q.606-.13 1.213-.264c.319-.072.595.132.593.441M3.114 4.953c.922.203 1.847.394 2.77.592q.159.032.313.082c.251.084.361.262.316.5-.048.248-.198.357-.56.35-.314-.062-.705-.134-1.094-.216q-.985-.211-1.968-.43c-.326-.072-.494-.296-.43-.57.061-.266.329-.38.653-.308"/>
    <path d="M.404 1.485c.038-.477.346-.668.843-.551.544.128 1.01.238 1.942.46l.069.017 2.694.636.03.007c.907.212 1.333.312 1.848.436.204.05.362.026.713-.079l.045-.013c.09-.027.152-.044.216-.058 1.067-.244 1.944-.45 3.823-.895l.052-.012.99-.234c.14-.033.263-.063.5-.123l.023-.005.129-.032c.195-.049.305-.075.436-.106.535-.125.844.124.843.647l-.005 2.265-.001.787v.274l-.001 1.48v2.131l.001 3.759v.471c0 .442-.144.618-.586.723l-5.517 1.312-.025.006c-.591.142-.855.205-1.185.282-.25.059-.45.036-.858-.062q-3.268-.785-6.41-1.534c-.47-.112-.607-.28-.607-.755V6.23l.001-.175v-.412l.001-.345v-.627l.001-.286V3.177l-.004-.803-.002-.384L.4 1.6zM1.2 1.13c-.412-.1-.604.04-.6.469l.003.39.002.383c.002.257.003.52.003.805v.446l.001.24v1.435l-.001.346v.411l-.001.175v6.489c0 .381.071.47.452.56 2.097.5 4.23 1.01 6.411 1.534.379.091.555.112.766.063.329-.077.593-.14 1.183-.283l.025-.006.525-.126.201-.048 4.792-1.138c.353-.083.432-.18.432-.528v-.471l-.001-3.759V4.906l.001-.274.001-.788.005-2.264c.001-.395-.189-.548-.598-.452a37 37 0 0 0-.561.137l-.023.005c-.239.06-.361.09-.503.124l-.99.234-.052.012c-1.41.334-2.256.533-3.041.715l-.586.134-.198.046a3 3 0 0 0-.204.055l-.044.013c-.384.114-.567.142-.817.082-.514-.125-.94-.225-1.847-.436l-.03-.007a384 384 0 0 1-2.694-.637l-.07-.016c-.932-.222-1.397-.332-1.941-.46m.25.823c.06-.026.11-.02.219.005l.469.113 1.977.476.3.072.302.072.342.082.09.021c1.03.247 1.55.37 2.157.509.243.055.344.174.343.423L7.645 8.7v4.976c0 .363-.069.419-.427.335a591 591 0 0 1-2.942-.698l-.08-.019-.9-.215c-.136-.032-.246-.06-.492-.12l-.012-.002a30 30 0 0 0-1.115-.26c-.246-.053-.34-.176-.34-.426l.004-1.175V9.881c0-.829-.003-1.696-.008-2.621V3.563c0-.483-.002-.929-.004-1.364 0-.126.035-.21.122-.247m12.839.016c.268-.07.379.006.377.29l-.007 1.455-.001.298v.154l-.001 3.343v3.041l.005 1.708c0 .257-.095.382-.349.441a759 759 0 0 0-5.59 1.328c-.257.062-.372-.028-.371-.286.003-3.536.003-6.863-.002-10.074 0-.197.088-.302.28-.347 1.267-.297 2.583-.609 3.993-.944l.127-.03.025-.006a67 67 0 0 0 1.514-.371m-12.754.167c-.003-.001-.007.01-.007.063l.004 1.365V7.26c.005.926.008 1.793.009 2.622v1.217l-.005 1.175c0 .157.03.197.182.229.314.066.57.127 1.12.261l.013.004.491.119.9.214.08.02a553 553 0 0 0 2.94.697c.232.054.182.096.182-.14V8.7l.005-4.976c0-.153-.033-.193-.188-.228-.607-.139-1.129-.262-2.16-.509l-.088-.021-.343-.082-2.579-.62-.469-.113-.04-.01a.2.2 0 0 0-.055-.006zm12.804.026c-.422.11-.772.195-1.518.372l-.025.006-.127.03c-1.41.336-2.726.647-3.994.945-.103.024-.125.05-.125.152.005 3.211.005 6.538.002 10.074 0 .128-.007.123.125.091 2.044-.493 3.857-.924 5.591-1.327.162-.038.194-.08.194-.246l-.005-1.709V4.165l.001-.154v-.298l.008-1.457c0-.146.02-.133-.127-.095M2.985 9.286l.103.015 1.662.351.094.02 1.236.262c.236.05.397.142.492.319.199.371-.103.794-.585.79l-1.319-.273-.143-.03-.386-.08-.022-.004c-.598-.124-.881-.182-1.223-.25-.369-.072-.603-.373-.532-.707.064-.303.379-.47.726-.398zm9.958.01c.382-.08.7.157.704.524.004.293-.198.516-.515.582l-.272.056-2.718.565c-.352.074-.66-.072-.738-.367-.092-.344.1-.626.478-.709a282 282 0 0 1 3.061-.651M2.557 9.74c-.046.218.11.418.376.47.342.068.626.126 1.225.25l.022.005.385.08.144.029c.329.068.68.14 1.299.271.318.001.51-.268.387-.498-.061-.115-.172-.179-.357-.218-.343-.072-.62-.13-1.235-.261l-.094-.02c-.782-.166-1.194-.254-1.662-.352-.246-.051-.45.058-.49.244m10.511-.26-.084.012c-.986.203-2 .42-3.059.65-.271.06-.389.233-.328.463.048.182.248.276.504.223l.16-.034.314-.065c.576-.12 1.18-.246 2.245-.466l.271-.057c.228-.047.358-.191.356-.384-.003-.237-.201-.385-.463-.33zm-.224-2.395c.392-.088.72.067.793.399.076.341-.142.6-.548.684-.501.104-.912.191-1.799.38l-.02.004-.98.208a5 5 0 0 1-.277.05c-.342 0-.575-.152-.617-.411-.054-.34.101-.588.43-.667.264-.063.484-.11.946-.206l.02-.004a74 74 0 0 0 .896-.189l.01-.002c.573-.12.828-.175 1.146-.246M2.36 7.482c.066-.326.386-.487.764-.406 1.092.235 2.013.43 2.896.615.544.114.768.527.468.918-.129.166-.239.206-.555.196l-.488-.1-.534-.111L4.9 8.59l-.81-.17-.202-.043c-.5-.107-.728-.156-1.01-.215-.39-.082-.588-.334-.518-.68m10.528-.202c-.319.071-.575.126-1.15.247l-.906.19-.02.005c-.46.095-.678.143-.939.205q-.336.08-.28.44c.025.15.167.243.402.244.097-.016.174-.03.247-.045l.986-.21.02-.004a320 320 0 0 1 1.8-.38c.307-.063.443-.225.394-.445-.047-.212-.26-.313-.554-.247m-10.332.24c-.046.23.074.384.364.445l1.01.215.06.013.082.017.06.013 1.353.285.47.098c.241.007.29-.011.374-.12.2-.26.063-.514-.35-.6a520 520 0 0 1-2.897-.615c-.278-.06-.484.044-.526.25m10.376-2.684c.38-.085.718.165.715.54q-.004.439-.482.546a123 123 0 0 1-3.089.651c-.327.066-.599-.082-.677-.375-.09-.334.076-.61.425-.69.356-.081.641-.143 1.281-.278l.04-.008a129 129 0 0 0 1.787-.386m-10.57.402c.076-.321.394-.468.773-.384l.136.03.267.058c.36.078.756.162 1.416.302l.07.014.881.188q.178.038.323.085c.297.099.438.324.383.613-.059.309-.262.44-.677.43l-.455-.089-.205-.04c-.167-.033-.32-.063-.399-.08l-.037-.008c-.445-.094-.841-.18-1.575-.342l-.106-.023-.085-.02-.117-.025-.085-.019c-.377-.083-.584-.358-.507-.69m10.698-.218-.084.011a141 141 0 0 1-1.79.387l-.04.008c-.638.135-.923.196-1.277.277-.239.055-.337.219-.277.443.05.186.216.277.445.231a122 122 0 0 0 3.085-.65c.23-.052.324-.158.325-.353.002-.242-.213-.4-.471-.343zm-9.968.03c-.282-.063-.487.032-.534.233-.05.216.08.39.355.45l.287.063.106.024a190 190 0 0 0 1.61.35c.19.04.8.158 1.021.201l.021.004h.104c.196-.011.29-.07.335-.198l.018-.07q.055-.284-.25-.386a3 3 0 0 0-.301-.08l-.882-.187-.07-.015c-.66-.14-1.055-.223-1.416-.302l-.268-.058z"/>
  </g>
</svg>
