<svg xmlns="http://www.w3.org/2000/svg" viewBox="0 0 16 16">
  <path fill="currentColor" d="M13.59 13.525a.775.775 0 1 1 0 1.55H2.375a.775.775 0 0 1 0-1.55zM10.715 2.174a3.46 3.46 0 0 1 1.17 2.56 4.17 4.17 0 0 1-.938 2.492c-.1.113-.245.662-.31 1.142l1.82.01c.992 0 1.811.744 1.887 1.69l.006.143v1.79a.76.76 0 0 1-.769.749H2.52a.76.76 0 0 1-.77-.75v-1.764c0-1.013.851-1.832 1.894-1.832l1.821-.001c-.056-.436-.177-.928-.272-1.101l-.03-.046a4.18 4.18 0 0 1-.949-2.48 3.46 3.46 0 0 1 1.159-2.591 3.68 3.68 0 0 1 2.662-.928 3.7 3.7 0 0 1 2.68.917m-2.417.677-.19.004a1 1 0 0 1-.113 0 2.13 2.13 0 0 0-1.56.521c-.416.37-.654.89-.652 1.418.023.547.23 1.08.584 1.516.425.466.659 1.576.678 2.349 0 .043 0 .043-.003.083a1.57 1.57 0 0 1-.304.791.77.77 0 0 1-.62.309h-2.42c-.194 0-.348.147-.348.32v.987h9.4v-1.01a.33.33 0 0 0-.278-.315l-.07-.007h-2.42a.77.77 0 0 1-.62-.309 1.6 1.6 0 0 1-.303-.78c-.004-.048-.004-.048-.004-.096.023-.776.262-1.88.685-2.348.353-.434.556-.97.577-1.52a1.9 1.9 0 0 0-.659-1.394 2.1 2.1 0 0 0-1.173-.508z"/>
</svg>
