<svg xmlns="http://www.w3.org/2000/svg" class="riskLevel-icon" viewBox="0 0 1024 1024">
  <path d="m498.995 972.8-5.12-2.048c-3.891-1.434-97.075-37.58-191.488-95.949C169.574 792.883 102.4 710.35 102.4 629.35V170.19c0-22.016 18.74-40.243 42.598-41.984L492.954 51.2h23.45l362.495 76.902c23.962 1.741 42.701 19.968 42.701 42.087V629.35c0 81.101-67.277 163.738-199.782 245.453-94.618 58.368-187.7 94.515-191.488 96.051l-5.223 1.946zm220.877-588.902a47.616 47.616 0 0 0-64.512-4.506L447.488 549.99l-72.704-86.22a47.616 47.616 0 0 0-64.205-6.861 42.086 42.086 0 0 0-7.168 61.03l101.683 120.832a47.41 47.41 0 0 0 59.597 9.933 45 45 0 0 0 9.728-6.144l240.64-197.53a41.88 41.88 0 0 0 4.813-61.132"/>
</svg>
