<svg xmlns="http://www.w3.org/2000/svg" viewBox="0 0 16 16">
  <path fill="currentColor" d="M7.632 1.701A.7.7 0 0 1 8.82 1.2l5.969 5.814a.7.7 0 0 1-.015 1.017l-5.968 5.491a.7.7 0 0 1-1.174-.515l-.001-2.81-.179.023c-1.351.21-2.512.901-3.5 1.953l-.154.169a9 9 0 0 0-1.106 1.547 7 7 0 0 0-.345.676c-.29.71-1.347.501-1.347-.266 0-5.974 1.98-9.334 6.461-9.71l.17-.011zm1.4 3.553a.7.7 0 0 1-.7.7c-3.442 0-5.243 1.824-5.767 5.648l-.005.032.192-.223c1.418-1.593 3.195-2.584 5.34-2.653l.24-.003a.7.7 0 0 1 .7.699v1.958l4.25-3.912-4.25-4.14z"/>
</svg>
