<svg xmlns="http://www.w3.org/2000/svg" viewBox="0 0 16 16">
  <g fill="currentColor">
    <path d="M12.582 1a.49.49 0 0 1 .483.508V9.29a3.323 3.323 0 1 1-4.784 4.611h-5.79a.49.49 0 0 1-.492-.49V1.508a.493.493 0 0 1 .492-.499H4.05c.172 0 .332.09.422.237l.732 1.21c.022.037.061.06.105.06h4.23a.13.13 0 0 0 .105-.054l.754-1.231A.49.49 0 0 1 10.815 1zm-1.905 7.646c-1.304 0-2.41.845-2.802 2.017a.18.18 0 0 1-.035.118 2.954 2.954 0 1 0 2.837-2.135M4.049 1.378H2.492a.123.123 0 0 0-.126.13v11.904a.123.123 0 0 0 .126.12l5.482.001a3.3 3.3 0 0 1-.536-2.678H4.369a.185.185 0 1 1 0-.369h3.176a3.33 3.33 0 0 1 2.181-2.071H4.37a.185.185 0 0 1 0-.369h6.074c.102 0 .185.083.185.185l-.008.047.057-.001c.76 0 1.459.256 2.018.684V1.508a.12.12 0 0 0-.123-.12h-1.769a.12.12 0 0 0-.105.058l-.753 1.23a.49.49 0 0 1-.407.21h-4.23a.5.5 0 0 1-.422-.24l-.732-1.21a.12.12 0 0 0-.105-.058m7.829 9.115a.185.185 0 0 1 .159.3l-1.446 1.755a.2.2 0 0 1-.133.067l-.015-.003a.18.18 0 0 1-.126-.052l-.859-.822a.18.18 0 0 1 0-.261.18.18 0 0 1 .259 0l.714.683 1.323-1.6a.18.18 0 0 1 .124-.067m-1.435-4.89a.185.185 0 0 1 0 .37H4.37a.185.185 0 1 1 0-.37zM9.053 1.01a.185.185 0 0 1 .178.191.18.18 0 0 1-.182.185l-3.255-.007a.185.185 0 0 1 0-.369z"/>
    <path d="M8.158 14.201H2.492a.79.79 0 0 1-.784-.681l-.008-.108v-11.9a.793.793 0 0 1 .792-.803H4.05c.276 0 .533.145.677.382l.681 1.125h4.033l.701-1.144A.79.79 0 0 1 10.7.708L10.815.7h1.772a.793.793 0 0 1 .778.808l-.001 7.666.061.067c.512.596.82 1.343.868 2.14l.007.219a3.623 3.623 0 0 1-6.075 2.667l-.074-.073zM12.582 1h-1.767a.49.49 0 0 0-.418.23l-.754 1.232a.13.13 0 0 1-.105.055h-4.23a.12.12 0 0 1-.105-.062l-.732-1.209a.5.5 0 0 0-.422-.237H2.492A.49.49 0 0 0 2 1.508v11.904c.002.27.222.49.492.49H8.28a3.323 3.323 0 1 0 4.784-4.611V1.508A.49.49 0 0 0 12.583 1m-1.905 7.646a2.954 2.954 0 1 1-2.837 2.135.18.18 0 0 0 .035-.118 2.955 2.955 0 0 1 2.802-2.017m0 .3c-1.09 0-2.052.663-2.456 1.646l-.05.133a.5.5 0 0 1-.047.166l-.042.153q-.039.18-.052.367l-.007.189a2.654 2.654 0 1 0 2.654-2.654M4.049 1.378a.12.12 0 0 1 .105.059l.732 1.21c.09.147.25.238.422.24h4.23a.49.49 0 0 0 .407-.21l.753-1.23a.12.12 0 0 1 .105-.06h1.77a.12.12 0 0 1 .122.12v7.454a3.3 3.3 0 0 0-2.018-.684l-.057.001.008-.047a.185.185 0 0 0-.185-.185H4.37a.185.185 0 1 0 0 .37l5.357-.001a3.33 3.33 0 0 0-2.18 2.071H4.368a.185.185 0 1 0 0 .37h3.069a3.33 3.33 0 0 0 .536 2.677H2.492a.123.123 0 0 1-.126-.12V1.507a.123.123 0 0 1 .126-.13zm-.1.3H2.666v11.554l4.777.001-.083-.172a3.6 3.6 0 0 1-.297-1.207l-.01-.254q0-.138.011-.274l.019-.171H4.369a.485.485 0 0 1-.477-.397l-.007-.087c0-.268.217-.485.484-.485H7.34c.224-.528.569-.99.999-1.354l.147-.118-4.117.001a.485.485 0 0 1-.477-.397l-.007-.087c0-.268.217-.485.484-.485h6.074c.149 0 .282.067.37.18l.036.056.069.003c.478.032.94.157 1.36.365l.117.063V1.687h-1.493l-.71 1.16a.8.8 0 0 1-.544.333l-.11.006H5.305a.8.8 0 0 1-.675-.384zm7.9 8.517a.485.485 0 0 1 .419.79l-1.445 1.752c-.085.105-.21.169-.42.172l-.054-.006a.47.47 0 0 1-.24-.126l-.859-.822a.48.48 0 0 1-.009-.685.48.48 0 0 1 .683-.01l.48.46 1.116-1.348a.5.5 0 0 1 .254-.164zm.029.298a.18.18 0 0 0-.124.067l-1.323 1.6-.714-.683a.18.18 0 0 0-.259 0 .18.18 0 0 0 0 .261l.859.822a.18.18 0 0 0 .126.052l.015.003a.2.2 0 0 0 .133-.067l1.446-1.754a.185.185 0 0 0-.16-.3m-1.435-5.19a.485.485 0 0 1 0 .97H4.37a.485.485 0 1 1 0-.97zm0 .3H4.37a.185.185 0 0 0 0 .37h6.074a.185.185 0 0 0 0-.37M9.063.71a.485.485 0 0 1 .468.486.48.48 0 0 1-.482.49l-3.255-.007a.485.485 0 1 1 0-.969zm-.01.3h-3.26a.185.185 0 1 0 0 .37l3.256.006a.18.18 0 0 0 .182-.185.185.185 0 0 0-.179-.19"/>
  </g>
</svg>
